<?xml version="1.0" encoding="UTF-8"?>
<svg width="501px" height="158px" viewBox="0 0 501 158" version="1.1" xmlns="http://www.w3.org/2000/svg" xmlns:xlink="http://www.w3.org/1999/xlink">
    <title>Expand_WEB_About_WHO IS EXPAND_sub-logo_white</title>
    <g id="Page-1" stroke="none" stroke-width="1" fill="none" fill-rule="evenodd">
        <g id="Expand_WEB_About_WHO-IS-EXPAND_sub-logo_white" transform="translate(0.200000, 0.000000)" fill="#FFFFFF" fill-rule="nonzero">
            <g id="Group" transform="translate(204.164449, 0.000000)">
                <path d="M273.084087,152.873869 C273.084087,155.534859 275.345929,157.663651 278.339542,157.663651 C281.333156,157.663651 283.661522,155.534859 283.661522,152.873869 C283.661522,150.212879 281.333156,148.017563 278.339542,148.017563 C275.345929,148.017563 273.084087,150.212879 273.084087,152.873869 M268.759979,124.401277 C272.086216,120.609367 275.478978,117.948377 281.732304,117.948377 C285.790314,117.948377 289.183076,119.544971 289.183076,122.738159 C289.183076,124.201703 288.451304,125.465673 287.320383,126.530069 C283.129324,130.521554 273.416711,133.116019 273.749335,142.695583 L280.401809,142.695583 C280.667908,136.242682 288.052155,134.646088 292.509313,130.388505 C294.438531,128.525812 295.835551,126.130921 295.835551,122.538584 C295.835551,114.688664 289.38265,111.96115 281.931879,111.96115 C272.884513,111.96115 268.427355,115.353912 264.103246,120.143693 L268.759979,124.401277 Z M227.115487,150.013305 L227.115487,119.877594 L240.154337,119.877594 C245.609367,119.877594 247.937733,121.274614 250.399148,123.536456 C253.126663,126.330495 254.590208,130.388505 254.590208,134.912187 C254.590208,139.56892 252.927089,143.826503 250.133049,146.620543 C247.538584,148.749335 245.675891,150.013305 240.154337,150.013305 L227.115487,150.013305 L227.115487,150.013305 Z M240.486961,156.66578 C248.336881,156.66578 252.261841,154.670037 255.987227,151.3438 C260.111762,147.352315 262.373603,141.431613 262.373603,134.912187 C262.373603,128.592336 260.311336,123.004258 256.4529,119.012773 C252.727515,115.420436 248.336881,113.22512 240.486961,113.22512 L219.664715,113.22512 L219.664715,156.66578 L240.486961,156.66578 Z M206.426291,113.22512 L206.426291,143.36083 L206.359766,143.36083 L181.279936,113.22512 L174.693986,113.22512 L174.693986,156.66578 L182.144758,156.66578 L182.144758,126.530069 L182.211283,126.530069 L207.291112,156.66578 L213.877062,156.66578 L213.877062,113.22512 L206.426291,113.22512 Z M148.283662,122.139436 L148.68281,122.139436 L156.133582,138.970197 L140.766365,138.970197 L148.283662,122.139436 Z M125.133049,156.66578 L132.916445,156.66578 L138.105375,144.957424 L158.794572,144.957424 L164.050027,156.66578 L172.232571,156.66578 L152.075572,113.22512 L145.290048,113.22512 L125.133049,156.66578 Z M117.349654,119.877594 C119.478446,119.877594 122.139436,120.077169 124.135178,122.205961 C125.266099,123.403406 125.931346,124.866951 125.931346,126.596594 C125.931346,128.326237 125.199574,129.989356 123.935604,131.186801 C121.806812,133.182544 119.212347,133.315593 117.349654,133.315593 L100.851517,133.315593 L100.851517,119.877594 L117.349654,119.877594 Z M100.851517,156.66578 L100.851517,139.968068 L117.349654,139.968068 C123.137307,139.968068 126.796168,138.371474 129.390633,135.910059 C131.852049,133.515168 133.382118,130.255455 133.382118,126.530069 C133.382118,123.336881 132.251197,120.343268 129.922831,117.815327 C127.261841,114.954763 123.469931,113.22512 117.349654,113.22512 L93.4007451,113.22512 L93.4007451,156.66578 L100.851517,156.66578 Z M80.8275679,113.22512 L68.3209154,129.05801 L56.3464609,113.22512 L46.833422,113.22512 L63.4646088,134.313465 L45.0372539,156.66578 L54.0846195,156.66578 L67.9217669,139.236296 L81.2267163,156.66578 L90.7397552,156.66578 L72.7780734,133.980841 L89.8749335,113.22512 L80.8275679,113.22512 Z M29.204364,130.654604 L12.5066525,130.654604 L12.5066525,119.877594 L40.3139968,119.877594 L40.3139968,113.22512 L5.05588079,113.22512 L5.05588079,156.66578 L41.9105907,156.66578 L41.9105907,150.013305 L12.5066525,150.013305 L12.5066525,137.307078 L29.204364,137.307078 L29.204364,130.654604 Z" id="Shape"></path>
                <path d="M56.1468866,62.2671634 C52.6875998,59.5396487 45.3033528,55.9473124 36.1229377,55.9473124 C28.1399681,55.9473124 18.6269292,59.0074508 18.6269292,69.3187866 C18.6269292,79.8296966 29.5369878,80.6279936 39.1165514,81.2932411 C46.7003725,81.8919638 51.6897286,83.0228845 51.6897286,88.4779138 C51.6897286,93.4007451 46.567323,95.5960617 40.1144226,95.5960617 C30.4018095,95.5960617 24.2815327,90.9393294 20.7557211,87.7461416 L16.2320383,92.9350718 C21.0883449,97.3257052 28.5391166,102.048962 39.9813731,102.048962 C50.3592336,102.048962 59.1405003,97.9909526 59.1405003,87.4800426 C59.1405003,75.3725386 46.8999468,74.5742416 39.1165514,74.0420436 C32.5306014,73.5763704 26.0777009,73.3767962 26.0777009,68.6535391 C26.0777009,64.0633316 30.6679085,62.4002129 35.8568387,62.4002129 C43.8398084,62.4002129 49.2283129,65.260777 51.6232038,67.4560937 L56.1468866,62.2671634 Z M12.5066525,57.2778073 L5.05588079,57.2778073 L5.05588079,100.718467 L12.5066525,100.718467 L12.5066525,57.2778073 Z" id="Shape"></path>
                <path d="M116.418308,22.9510378 C116.418308,13.9701969 123.669505,6.65247472 132.98297,6.65247472 C142.362959,6.65247472 149.747206,13.9701969 149.747206,22.9510378 C149.747206,31.9984034 142.362959,39.4491751 132.98297,39.4491751 C123.669505,39.4491751 116.418308,31.9984034 116.418308,22.9510378 M108.568387,22.9510378 C108.568387,35.8568387 119.278872,46.1016498 132.98297,46.1016498 C146.687068,46.1016498 157.597126,35.8568387 157.597126,22.9510378 C157.597126,10.2448111 146.687068,0 132.98297,0 C119.278872,0 108.568387,10.2448111 108.568387,22.9510378 M72.9111229,44.7711549 L72.9111229,24.4145822 L96.5274082,24.4145822 L96.5274082,44.7711549 L103.97818,44.7711549 L103.97818,1.33049494 L96.5274082,1.33049494 L96.5274082,17.7621075 L72.9111229,17.7621075 L72.9111229,1.33049494 L65.4603513,1.33049494 L65.4603513,44.7711549 L72.9111229,44.7711549 Z M3.78149407e-14,1.33049494 L13.9036722,44.7711549 L21.3544439,44.7711549 L30.8674827,15.6998403 L31.2666312,15.6998403 L40.77967,44.7711549 L48.2304417,44.7711549 L62.1341139,1.33049494 L54.3507185,1.33049494 L44.6381054,33.2623736 L44.2389569,33.2623736 L33.9276211,1.33049494 L28.6056413,1.33049494 L18.2943055,33.2623736 L17.895157,33.2623736 L8.18254391,1.33049494 L3.78149407e-14,1.33049494 Z" id="Shape"></path>
            </g>
            <rect id="Rectangle" x="28.6056413" y="69.3853113" width="81.3597658" height="18.2277807"></rect>
            <rect id="Rectangle" x="28.6056413" y="0.266098989" width="146.354444" height="18.2277807"></rect>
            <rect id="Rectangle" x="1.41806028e-14" y="34.7924428" width="65.6599255" height="18.2277807"></rect>
            <rect id="Rectangle" x="15.6333156" y="103.911655" width="65.6599255" height="18.2277807"></rect>
            <rect id="Rectangle" x="28.6056413" y="138.437999" width="162.586482" height="18.2277807"></rect>
        </g>
    </g>
</svg>