<?xml version="1.0" encoding="UTF-8"?>
<svg width="140px" height="58px" viewBox="0 0 140 58" version="1.1" xmlns="http://www.w3.org/2000/svg" xmlns:xlink="http://www.w3.org/1999/xlink">
    <title>bcg</title>
    <g id="Page-1" stroke="none" stroke-width="1" fill="none" fill-rule="evenodd">
        <g id="bcg" fill="#FFFFFF" fill-rule="nonzero">
            <path d="M140,28.5684892 C140,28.200105 140,27.8188263 140,27.4241109 C140,27.0033355 139.960697,26.5954546 139.881703,26.2010103 C139.829041,25.8062949 139.789545,25.4117151 139.763213,25.0171353 C139.736882,24.6225361 139.684414,24.2542487 139.60542,23.9122924 L117.626937,23.9122924 L110.958189,34.3688126 L127.846787,34.3688126 C127.346747,36.1314499 126.623415,37.7361003 125.67652,39.1827639 C124.755705,40.6033675 123.650842,41.8396337 122.361895,42.891853 L122.361895,42.9313497 C121.020304,43.9835497 119.533892,44.812206 117.903162,45.4173188 C116.298512,45.996081 114.588537,46.2854718 112.773489,46.2854718 C112.720826,46.2854718 112.668164,46.2854718 112.615502,46.2854718 C112.589171,46.2854718 112.576005,46.2854718 112.576005,46.2854718 C110.208526,46.2854718 107.972451,45.8120148 105.868032,44.8648683 C103.763593,43.9179929 101.961731,42.6551245 100.462134,41.0768052 C98.9101454,39.4194925 97.6870448,37.5254512 96.7925606,35.3947008 C95.8980764,33.2639504 95.4509698,30.9886305 95.4509698,28.5684892 C95.4509698,28.5421581 95.4509698,28.5289925 95.4509698,28.5289925 C95.4509698,28.5026614 95.4509698,28.4631647 95.4509698,28.4105024 C95.4509698,26.0166923 95.8980764,23.7675873 96.7925606,21.66311 C97.6870448,19.5323596 98.923311,17.6777957 100.50163,16.0994183 C102.053618,14.5210796 103.882084,13.2584048 105.986522,12.3113745 C108.090941,11.3643636 110.327016,10.8908678 112.694495,10.8908678 C112.694495,10.8908678 112.708048,10.8908678 112.733992,10.8908678 C112.760323,10.8908678 112.773489,10.8908678 112.773489,10.8908678 C112.773489,10.8908678 112.787042,10.8908678 112.812792,10.8908678 C112.865454,10.8908678 112.891785,10.8908678 112.891785,10.8908678 C113.891342,10.8908678 114.877985,10.9830268 115.851211,11.167093 C116.850749,11.3248863 117.811061,11.5616729 118.731625,11.8773367 L118.534393,11.7983433 C119.481539,12.1403383 120.362606,12.5349181 121.178097,12.9821022 C121.993588,13.4293249 122.756416,13.9159862 123.466834,14.4420862 L123.466834,14.4025895 L126.426241,9.70701217 L129.385667,4.97193812 C128.280786,4.20907088 127.096911,3.52511961 125.834313,2.92008431 C124.598047,2.31504901 123.308847,1.80209523 121.967257,1.38120363 L121.770025,1.30221023 C120.454765,0.933922815 119.047327,0.64455137 117.548001,0.434115251 C116.048424,0.197347995 114.535932,0.0789740482 113.010275,0.0789740482 C112.957613,0.0789740482 112.918116,0.0789740482 112.891785,0.0789740482 C112.891785,0.0789740482 112.865454,0.0789740482 112.812792,0.0789740482 C112.786654,0.0789740482 112.747158,0.0789740482 112.694495,0.0789740482 C112.668164,0.0789740482 112.628667,0.0789740482 112.576005,0.0789740482 C110.550579,0.0789740482 108.577545,0.263098392 106.657172,0.631405163 C104.76315,0.999673212 102.921771,1.55210433 101.133055,2.28867915 L101.369783,2.20968574 C99.6334772,2.97255297 98.0159129,3.85381351 96.5163353,4.853448 C95.0170094,5.85304377 93.6490875,6.97107157 92.4125503,8.20743459 C90.9395555,9.75948083 89.6898527,11.2852153 88.6639839,12.7846767 C87.6644268,14.3367036 86.8357705,15.8493112 86.1782665,17.3224221 C85.5205108,18.7955524 84.9812259,20.2818483 84.5604505,21.781271 C84.1657351,23.2280895 83.8105359,24.6617618 83.4950656,26.0822878 C82.8899722,28.8707939 82.2585477,31.5276637 81.6010437,34.0528777 C80.9432687,36.5783435 79.5885124,38.8539152 77.5367554,40.879341 C76.7475957,41.6948318 75.8794427,42.4444948 74.9322962,43.1286009 C74.0117326,43.7861049 73.0514205,44.338536 72.0518635,44.7856426 L71.9333734,44.864636 C70.9338357,45.2593513 69.8816164,45.5750733 68.7767348,45.8117824 C67.6982037,46.048511 66.5540771,46.1667494 65.3438903,46.1667494 C65.3438903,46.1667494 65.3175592,46.1667494 65.2648969,46.1667494 C65.2385658,46.1667494 65.2254002,46.1667494 65.2254002,46.1667494 C62.7791795,46.1667494 60.4772767,45.6932923 58.3201758,44.7464169 C56.1630943,43.7992704 54.269053,42.5103226 52.6380715,40.879341 C51.0597522,39.3273529 49.7971548,37.4728277 48.8500084,35.3157268 C47.9031136,33.1323141 47.4296759,30.8172457 47.4296759,28.3707734 C47.4296759,26.0032944 47.889948,23.767355 48.8105117,21.6628776 C49.731327,19.5321272 50.9939243,17.6775633 52.5985748,16.099186 C54.2032252,14.4945355 56.0841009,13.2186952 58.2411824,12.2717036 C60.3982833,11.2983809 62.7001861,10.8117195 65.1466585,10.8117195 C66.1725467,10.8117195 67.1720843,10.9038785 68.145562,11.0879448 C69.1187879,11.245738 70.0788482,11.469359 71.0259947,11.7587305 L70.8680078,11.7587305 C71.8151543,12.0481019 72.6833074,12.4163699 73.472467,12.8635927 C74.2616267,13.2844649 75.0244552,13.7579607 75.7609526,14.2840994 L75.6821528,14.2840994 L78.6808045,9.58848334 L81.7192047,4.81397066 C80.6406543,4.07739584 79.4699642,3.40661014 78.2073475,2.80157483 C76.9710812,2.19653953 75.6689872,1.68358576 74.3010459,1.2626748 L74.1430591,1.2626748 C72.8278188,0.841783199 71.4203809,0.52611934 69.921055,0.315663859 C68.4478085,0.10522774 66.9353171,0 65.3833289,0 C65.3569978,0 65.3175011,0 65.2648388,0 C65.2385077,0 65.2121765,0 65.186039,0 C65.186039,0 65.1724862,0 65.1465423,0 C65.1202112,0 65.1070456,0 65.1070456,0 C62.6605733,0 60.2930943,0.302517652 58.0043571,0.907552956 C55.7422027,1.48627649 53.6114329,2.30176727 51.6120865,3.35398659 L51.7305766,3.31448988 C49.757542,4.31412437 47.9424941,5.53732183 46.2851814,6.98414033 C44.6278687,8.43095883 43.154874,10.0224824 41.8656938,11.7586724 L41.786894,11.7981691 C41.260794,10.2198111 40.4977138,8.78613876 39.4981568,7.49715219 C38.4985997,6.18185384 37.3147441,5.09017654 35.9468028,4.22208156 L35.9073061,4.22208156 C34.4606425,3.27505126 32.8691576,2.5384958 31.1328515,2.01237646 C29.3968164,1.45996471 27.5815169,1.18373947 25.6876112,1.18373947 C25.6086178,1.18373947 25.5429836,1.18373947 25.4903019,1.18373947 C25.4376397,1.18373947 25.398143,1.18373947 25.3720054,1.18373947 L0,1.18373947 L0,55.873626 L28.0158064,55.873626 C28.0684687,55.873626 28.1209374,55.873626 28.1735996,55.873626 C28.2262619,55.873626 28.2657586,55.873626 28.2920897,55.873626 C29.9757336,55.873626 31.580384,55.6632286 33.106041,55.2424532 C34.6316981,54.8477379 36.0786327,54.2821412 37.4465546,53.5456438 L37.3280645,53.5851405 C38.616993,52.8747032 39.7745369,52.0331523 40.8004251,51.0596747 C41.852625,50.0601177 42.7339436,48.9552361 43.4441099,47.7450493 L43.5231033,47.6267528 C44.78572,49.0736681 46.1931386,50.3625966 47.7451268,51.4938093 C49.2973666,52.624751 50.9415138,53.6113942 52.6775682,54.4532161 L52.8748,54.4925192 C54.6111061,55.2816789 56.4787969,55.8999572 58.4781627,56.3470637 C60.4772574,56.8207725 62.5553649,57.0576172 64.7124464,57.0576172 C64.7124464,57.0576172 64.7259992,57.0576172 64.7519431,57.0576172 C64.7782743,57.0576172 64.8046054,57.0576172 64.8309365,57.0576172 C64.8835988,57.0576172 64.9230955,57.0576172 64.949233,57.0576172 C64.9755642,57.0576172 65.0150609,57.0576172 65.0677232,57.0576172 C67.5141955,57.0576172 69.89484,56.7549447 72.2096567,56.1498319 C74.5247251,55.5710697 76.681826,54.7292477 78.6809207,53.6246372 L78.5626242,53.7429337 C80.6143812,52.6643833 82.4689257,51.3886203 84.1262384,49.9153545 C85.7835511,48.4160286 87.2567976,46.7587159 88.5457454,44.9436875 L88.5852421,44.8251973 C89.8478395,46.666557 91.2945031,48.3370352 92.9254847,49.8366322 C94.5827974,51.3096269 96.3717658,52.5722243 98.2918671,53.6246953 L98.4103572,53.7034951 C100.409723,54.7557144 102.566805,55.5712052 104.881621,56.1499674 C107.196438,56.7550608 109.603414,57.0576172 112.102548,57.0576172 C112.102548,57.0576172 112.116101,57.0576172 112.142045,57.0576172 C112.168376,57.0576172 112.207873,57.0576172 112.260535,57.0576172 C112.286673,57.0576172 112.313004,57.0576172 112.339335,57.0576172 C112.365666,57.0576172 112.378831,57.0576172 112.378831,57.0576172 C114.299204,57.0576172 116.166914,56.8603854 117.981942,56.4656894 C119.797242,56.070974 121.533296,55.505629 123.190609,54.76888 C124.874253,54.0587137 126.452572,53.1905607 127.925567,52.1646725 C129.398813,51.1124532 130.753589,49.9417631 131.989855,48.6528153 C133.252453,47.3902179 134.3705,45.9959649 135.343977,44.4703078 C136.317203,42.9707109 137.14586,41.379226 137.829695,39.6955822 C138.513782,38.0122094 139.039882,36.2495722 139.408266,34.4081932 C139.80271,32.5931454 140,30.6991235 140,28.7260888 C140,28.6997577 140,28.6734266 140,28.6470954 C140,28.6209579 140,28.5946268 140,28.5682956 L140,28.5684892 Z M11.798382,23.3993193 L11.798382,11.2854476 L25.2538445,11.2854476 C25.2801756,11.2854476 25.2933412,11.2854476 25.2933412,11.2854476 C26.1351825,11.2854476 26.9111765,11.4432408 27.6213428,11.7589628 C28.3317801,12.0483342 28.9761185,12.4692065 29.5548807,13.0216569 L29.515384,13.0216569 C30.0678151,13.5740687 30.4888616,14.2054158 30.7782524,14.9156595 C31.0937033,15.6259225 31.2516901,16.3888091 31.2516901,17.2042805 C31.2516901,17.2042805 31.2516901,17.2178333 31.2516901,17.2437772 C31.2516901,17.2701084 31.2516901,17.2832739 31.2516901,17.2832739 C31.2516901,17.3359362 31.2516901,17.3622673 31.2516901,17.3622673 C31.2516901,17.3622673 31.2516901,17.3885985 31.2516901,17.4412608 C31.2516901,18.2304398 31.0937033,18.9933264 30.7782524,19.7298625 C30.4888616,20.4401449 30.0809807,21.0714726 29.5548807,21.6239037 L29.515384,21.6239037 C28.9629529,22.1763154 28.3317801,22.6103726 27.6213428,22.9260365 C26.9111765,23.2417197 26.1351825,23.3995516 25.2933412,23.3995516 C25.2933412,23.3995516 25.2797884,23.3995516 25.2538445,23.3995516 L11.798382,23.3993193 Z M11.798382,45.7725181 L11.798382,33.3429438 L27.8580132,33.3429438 C27.8843444,33.3429438 27.8975099,33.3429438 27.8975099,33.3429438 C28.765663,33.3429438 29.5811538,33.500737 30.3439823,33.8163815 C31.1331419,34.1321035 31.8304137,34.5531306 32.4352553,35.0792499 C33.0140176,35.6314294 33.4745608,36.289185 33.8163428,37.0520135 C34.1583959,37.814842 34.3292772,38.6171673 34.3292772,39.4589892 C34.3292772,39.4589892 34.3292772,39.472542 34.3292772,39.4984859 C34.3292772,40.3929701 34.1583184,41.2216264 33.8163428,41.9844549 C33.4745608,42.7472835 33.000852,43.4182047 32.3960103,43.9967152 C31.8172481,44.5754969 31.1331419,45.0228551 30.3439823,45.3383254 C29.5811538,45.654028 28.7524974,45.8120148 27.8580132,45.8120148 L11.798382,45.8120148 L11.798382,45.7725181 Z" id="path645"></path>
        </g>
    </g>
</svg>