<?xml version="1.0" encoding="utf-8"?>
<!-- Generator: Adobe Illustrator 21.1.0, SVG Export Plug-In . SVG Version: 6.00 Build 0)  -->
<svg version="1.1"
	 id="Ebene_1" inkscape:version="0.48.5 r10040" sodipodi:docname="BCG_Logo_compact_rev.svg" xmlns:cc="http://creativecommons.org/ns#" xmlns:dc="http://purl.org/dc/elements/1.1/" xmlns:inkscape="http://www.inkscape.org/namespaces/inkscape" xmlns:rdf="http://www.w3.org/1999/02/22-rdf-syntax-ns#" xmlns:sodipodi="http://sodipodi.sourceforge.net/DTD/sodipodi-0.dtd" xmlns:svg="http://www.w3.org/2000/svg"
	 xmlns="http://www.w3.org/2000/svg" xmlns:xlink="http://www.w3.org/1999/xlink" x="0px" y="0px" viewBox="0 0 99 40"
	 style="enable-background:new 0 0 99 40;" xml:space="preserve">
<style type="text/css">
	.st0{fill:#FFFFFF;}
</style>
<sodipodi:namedview  bordercolor="#666666" borderopacity="1" gridtolerance="10" guidetolerance="10" id="namedview23" inkscape:current-layer="Ebene_1" inkscape:cx="58.850177" inkscape:cy="47.448823" inkscape:pageopacity="0" inkscape:pageshadow="2" inkscape:window-height="480" inkscape:window-maximized="0" inkscape:window-width="640" inkscape:window-x="663" inkscape:window-y="167" inkscape:zoom="1.5857387" objecttolerance="10" pagecolor="#ffffff" showgrid="false">
	</sodipodi:namedview>
<g id="g11" transform="translate(0,-783.89)">
</g>
<g id="g13" transform="translate(0,-783.89)">
</g>
<g id="g15" transform="translate(0,-783.89)">
</g>
<g id="g17" transform="translate(0,-783.89)">
</g>
<g id="g19" transform="translate(0,-783.89)">
</g>
<g id="g21" transform="translate(0,-783.89)">
</g>
<g>
	<path class="st0" d="M97.5,20c0-0.6,0-1.1-0.1-1.6c-0.1-0.6-0.1-1.1-0.2-1.6h-7.5h-7.5l-2.3,3.6l-2.3,3.6h11.6
		c-0.7,2.4-2,4.4-3.8,5.8c-1.8,1.5-4.1,2.3-6.6,2.3c-3.2,0-6.2-1.4-8.4-3.6c-2.1-2.2-3.4-5.2-3.4-8.5c0-3.2,1.3-6.2,3.5-8.4
		c2.1-2.2,5.1-3.6,8.4-3.6c1.5,0,2.8,0.2,4,0.6c1.2,0.4,2.4,1,3.3,1.8l2-3.2l2-3.2c-1.5-1.1-3.3-1.9-5.2-2.5c-2-0.5-4.1-0.8-6.2-0.8
		C76,0.5,73.4,1.1,71,2c-2.4,1-4.4,2.4-6.2,4.1c-4.1,4.1-5.3,8.3-6.1,12.2c-0.8,3.8-1.3,7.3-4.1,10.1c-1.1,1.1-2.4,2-3.9,2.7
		c-1.4,0.6-2.9,0.9-4.6,0.9c-3.4,0-6.4-1.4-8.6-3.6c-2.2-2.2-3.6-5.2-3.6-8.4c0-3.2,1.4-6.2,3.6-8.4s5.3-3.6,8.6-3.6
		c1.4,0,2.8,0.2,4,0.6c1.2,0.4,2.4,1,3.3,1.7l2-3.2l2-3.2c-1.5-1.1-3.3-1.9-5.2-2.4c-1.9-0.6-4-0.8-6.2-0.8c-3.3,0-6.5,0.8-9.2,2.3
		c-2.7,1.4-4.9,3.4-6.7,5.8c-0.7-2.1-2.1-4-4.1-5.3s-4.5-2-7.2-2h-8.8H1.5V20v18.6h19.2c2.4,0,4.5-0.6,6.4-1.5
		c1.8-1,3.2-2.4,4.2-4.1c1.8,1.9,4,3.6,6.4,4.7c2.5,1.1,5.3,1.8,8.2,1.8c3.5,0,6.6-0.8,9.4-2.3c2.8-1.5,5.1-3.6,6.9-6.1
		c1.7,2.5,4.1,4.6,6.8,6.1c2.8,1.5,6,2.3,9.5,2.3c5.4,0,10.1-2.2,13.5-5.7C95.4,30.2,97.5,25.3,97.5,20L97.5,20z M9.6,16.4V8.3h9.2
		c1.1,0,2.2,0.4,2.9,1.1c0.7,0.7,1.2,1.7,1.2,2.9c0,1.1-0.5,2.2-1.2,2.9c-0.7,0.7-1.8,1.1-2.9,1.1h-4.6H9.6L9.6,16.4z M9.6,31.6
		v-8.4h11c1.2,0,2.4,0.5,3.2,1.2c0.8,0.7,1.3,1.8,1.3,3c0,1.2-0.5,2.3-1.3,3s-1.9,1.2-3.2,1.2h-5.5H9.6L9.6,31.6z"/>
</g>
</svg>
