<svg height="417" viewBox="0 0 1506 417" width="1506" xmlns="http://www.w3.org/2000/svg"><g fill="none" fill-rule="evenodd"><path d="m1404 260v52h-52c0-28.718807 23.28119-52 52-52z" fill="#fff" opacity=".391811" transform="matrix(-1 0 0 -1 2756 572)"/><path d="m208 0v52h-52c0-28.718807 23.281193-52 52-52z" fill="#fff" opacity=".391811" transform="matrix(-1 0 0 -1 364 52)"/><path d="m156 0v52h-52c0-28.718807 23.281193-52 52-52z" fill="#960000" opacity=".675874"/><path d="m260 52v52h-52c0-28.718807 23.281193-52 52-52z" fill="#960000" opacity=".391811"/><path d="m1248 208v52h-52c0-28.718807 23.28119-52 52-52z" fill="#960000" opacity=".665597"/><path d="m104 104v52h-52c0-28.718807 23.281193-52 52-52z" fill="#960000" opacity=".391811"/><path d="m52 156v52h-52c0-28.718807 23.281193-52 52-52z" fill="#fff" opacity=".236886"/><path d="m208 156v52h-52c0-28.718807 23.281193-52 52-52z" fill="#960000" opacity=".679339" transform="matrix(-1 0 0 -1 364 364)"/><path d="m208 208v52h-52c0-28.718807 23.281193-52 52-52z" fill="#960000" opacity=".391811" transform="matrix(-1 0 0 -1 364 468)"/><path d="m104 156v52h-52c0-28.718807 23.281193-52 52-52z" fill="#fff" opacity=".236886" transform="matrix(-1 0 0 -1 156 364)"/><path d="m52 208v52h-52c0-28.718807 23.281193-52 52-52z" fill="#960000" opacity=".391811" transform="matrix(-1 0 0 -1 52 468)"/><path d="m520 0v52h-52c0-28.718807 23.281193-52 52-52z" fill="#960000" opacity=".391811" transform="matrix(-1 0 0 -1 988 52)"/><path d="m468 52v52h-52c0-28.718807 23.281193-52 52-52z" fill="#960000" opacity=".391811"/><path d="m572 52v52h-52c0-28.718807 23.281193-52 52-52z" fill="#960000" opacity=".686454"/><path d="m572 156v52h-52c0-28.718807 23.281193-52 52-52z" fill="#960000" opacity=".678385"/><path d="m416 104v52h-52c0-28.718807 23.281193-52 52-52z" fill="#fff" opacity=".391811"/><path d="m364 156v52h-52c0-28.718807 23.281193-52 52-52z" fill="#960000" opacity=".391811"/><path d="m520 208v52h-52c0-28.718807 23.281193-52 52-52z" fill="#960000" opacity=".391811" transform="matrix(-1 0 0 -1 988 468)"/><path d="m416 156v52h-52c0-28.718807 23.281193-52 52-52z" fill="#960000" opacity=".524972" transform="matrix(-1 0 0 -1 780 364)"/><path d="m1404 0v52h-52c0-28.718807 23.28119-52 52-52z" fill="#960000" opacity=".391811" transform="matrix(-1 0 0 -1 2756 52)"/><path d="m1352 52v52h-52c0-28.718807 23.28119-52 52-52z" fill="#960000" opacity=".772205"/><path d="m1456 208v52h-52c0-28.718807 23.28119-52 52-52z" fill="#960000" opacity=".391811"/><path d="m1300 104v52h-52c0-28.718807 23.28119-52 52-52z" fill="#960000" opacity=".391811"/><path d="m1404 156v52h-52c0-28.718807 23.28119-52 52-52z" fill="#960000" opacity=".565616" transform="matrix(-1 0 0 -1 2756 364)"/><path d="m1300 156v52h-52c0-28.718807 23.28119-52 52-52z" fill="#960000" opacity=".91948" transform="matrix(-1 0 0 -1 2548 364)"/><path d="m364 208v52h-52c0-28.718807 23.281193-52 52-52z" fill="#fff" opacity=".391811" transform="matrix(-1 0 0 -1 676 468)"/><path d="m832 0v52h-52c0-28.718807 23.281193-52 52-52z" fill="#fff" opacity=".391811" transform="matrix(-1 0 0 -1 1612 52)"/><g fill="#960000"><path d="m780 52v52h-52c0-28.718807 23.281193-52 52-52z" opacity=".391811"/><path d="m884 52v52h-52c0-28.718807 23.281193-52 52-52z" opacity=".678385"/><path d="m1456 52v52h-52c0-28.718807 23.28119-52 52-52z" opacity=".678385"/><path d="m1040 104v52h-52c0-28.718807 23.28119-52 52-52z" opacity=".678385"/><path d="m884 156v52h-52c0-28.718807 23.281193-52 52-52z" opacity=".391811"/><path d="m728 104v52h-52c0-28.718807 23.281193-52 52-52z" opacity=".391811"/><path d="m676 156v52h-52c0-28.718807 23.281193-52 52-52z" opacity=".60419"/><path d="m832 156v52h-52c0-28.718807 23.281193-52 52-52z" opacity=".678385" transform="matrix(-1 0 0 -1 1612 364)"/><path d="m832 208v52h-52c0-28.718807 23.281193-52 52-52z" opacity=".391811" transform="matrix(-1 0 0 -1 1612 468)"/><path d="m728 156v52h-52c0-28.718807 23.281193-52 52-52z" opacity=".391811" transform="matrix(-1 0 0 -1 1404 364)"/><path d="m52 0v52h-52c0-28.718807 23.281193-52 52-52z" opacity=".391811" transform="matrix(-1 0 0 -1 52 52)"/><path d="m1092 208v52h-52c0-28.718807 23.28119-52 52-52z" opacity=".391811"/><path d="m312 104v52h-52c0-28.718807 23.281193-52 52-52z" opacity=".391811" transform="matrix(-1 0 0 -1 572 260)"/></g><path d="m624 156v52h-52c0-28.718807 23.281193-52 52-52z" fill="#fff" opacity=".452334" transform="matrix(-1 0 0 -1 1196 364)"/><path d="m676 52v52h-52c0-28.718807 23.281193-52 52-52z" fill="#960000" opacity=".391811" transform="matrix(-1 0 0 -1 1300 156)"/><path d="m1196 104v52h-52c0-28.718807 23.28119-52 52-52z" fill="#960000" opacity=".391811" transform="matrix(-1 0 0 -1 2340 260)"/><path d="m1092 156v52h-52c0-28.718807 23.28119-52 52-52z" fill="#960000" opacity=".391811" transform="matrix(-1 0 0 -1 2132 364)"/><path d="m1248 52v52h-52c0-28.718807 23.28119-52 52-52z" fill="#960000" opacity=".716332" transform="matrix(-1 0 0 -1 2444 156)"/><path d="m1506 0v52h-52c0-28.718807 23.28119-52 52-52z" fill="#960000" opacity=".716332" transform="matrix(-1 0 0 -1 2960 52)"/><path d="m1092 52v52h-52c0-28.718807 23.28119-52 52-52z" fill="#fff" opacity=".391811"/><path d="m936 0v52h-52c0-28.718807 23.281193-52 52-52z" fill="#960000" opacity=".391811"/><path d="m936 156v52h-52c0-28.718807 23.281193-52 52-52z" fill="#fff" opacity=".391811" transform="matrix(-1 0 0 -1 1820 364)"/><path d="m1248 0v52h-52c0-28.718807 23.28119-52 52-52z" fill="#960000" opacity=".716332"/><path d="m208 260v52h-52c0-28.718807 23.281193-52 52-52z" fill="#fff" opacity=".391811" transform="matrix(-1 0 0 -1 364 572)"/><path d="m156 260v52h-52c0-28.718807 23.281193-52 52-52z" fill="#960000" opacity=".675874"/><path d="m260 312v52h-52c0-28.718807 23.281193-52 52-52z" fill="#960000" opacity=".391811"/><path d="m104 364v52h-52c0-28.718807 23.281193-52 52-52z" fill="#960000" opacity=".391811"/><path d="m520 260v52h-52c0-28.718807 23.281193-52 52-52z" fill="#960000" opacity=".391811" transform="matrix(-1 0 0 -1 988 572)"/><path d="m468 312v52h-52c0-28.718807 23.281193-52 52-52z" fill="#960000" opacity=".391811"/><path d="m572 312v52h-52c0-28.718807 23.281193-52 52-52z" fill="#960000" opacity=".686454"/><path d="m416 364v52h-52c0-28.718807 23.281193-52 52-52z" fill="#fff" opacity=".391811"/><path d="m1352 312v52h-52c0-28.718807 23.28119-52 52-52z" fill="#960000" opacity=".391811"/><path d="m1300 364v52h-52c0-28.718807 23.28119-52 52-52z" fill="#960000" opacity=".391811"/><path d="m832 260v52h-52c0-28.718807 23.281193-52 52-52z" fill="#960000" opacity=".391811" transform="matrix(-1 0 0 -1 1612 572)"/><path d="m780 312v52h-52c0-28.718807 23.281193-52 52-52z" fill="#960000" opacity=".391811"/><path d="m884 312v52h-52c0-28.718807 23.281193-52 52-52z" fill="#960000" opacity=".775995"/><path d="m1454 312v52h-52c0-28.718807 23.28119-52 52-52z" fill="#960000" opacity=".678385"/><path d="m1040 364v52h-52c0-28.718807 23.28119-52 52-52z" fill="#960000" opacity=".678385"/><path d="m728 364v52h-52c0-28.718807 23.281193-52 52-52z" fill="#960000" opacity=".391811"/><path d="m52 260v52h-52c0-28.718807 23.281193-52 52-52z" fill="#960000" opacity=".391811" transform="matrix(-1 0 0 -1 52 572)"/><path d="m312 364v52h-52c0-28.718807 23.281193-52 52-52z" fill="#960000" opacity=".391811" transform="matrix(-1 0 0 -1 572 780)"/><path d="m676 312v52h-52c0-28.718807 23.281193-52 52-52z" fill="#960000" opacity=".391811" transform="matrix(-1 0 0 -1 1300 676)"/><path d="m1196 364v52h-52c0-28.718807 23.28119-52 52-52z" fill="#960000" opacity=".391811" transform="matrix(-1 0 0 -1 2340 780)"/><path d="m1248 312v52h-52c0-28.718807 23.28119-52 52-52z" fill="#960000" opacity=".716332" transform="matrix(-1 0 0 -1 2444 676)"/><path d="m1092 312v52h-52c0-28.718807 23.28119-52 52-52z" fill="#fff" opacity=".391811"/><path d="m1506 260v52h-52c0-28.718807 23.28119-52 52-52z" fill="#fff" opacity=".391811"/><path d="m936 260v52h-52c0-28.718807 23.281193-52 52-52z" fill="#960000" opacity=".391811"/><path d="m1248 260v52h-52c0-28.718807 23.28119-52 52-52z" fill="#960000" opacity=".279901"/><path d="m1506 52v52h-52c0-28.718807 23.28119-52 52-52z" fill="#fff" opacity=".391811" transform="matrix(-1 0 0 -1 2960 156)"/></g></svg>