<?xml version="1.0" encoding="UTF-8"?>
<svg width="32px" height="32px" viewBox="0 0 32 32" version="1.1" xmlns="http://www.w3.org/2000/svg" xmlns:xlink="http://www.w3.org/1999/xlink">
    <title>square-envelope-solid</title>
    <g id="Page-1" stroke="none" stroke-width="1" fill="none" fill-rule="evenodd">
        <g id="square-envelope-solid" fill="#197A56" fill-rule="nonzero">
            <path d="M4.57142857,0 C2.05,0 0,2.05 0,4.57142857 L0,27.4285714 C0,29.95 2.05,32 4.57142857,32 L27.4285714,32 C29.95,32 32,29.95 32,27.4285714 L32,4.57142857 C32,2.05 29.95,0 27.4285714,0 L4.57142857,0 Z M15.5714286,17.1214286 L4.58571429,10.0285714 C4.71428571,8.88571429 5.67857143,8 6.85714286,8 L25.1428571,8 C26.3214286,8 27.2857143,8.88571429 27.4142857,10.0285714 L16.4285714,17.1214286 C16.3,17.2071429 16.15,17.25 16,17.25 C15.85,17.25 15.7,17.2071429 15.5714286,17.1214286 Z M17.6714286,19.0428571 L27.4285714,12.7428571 L27.4285714,21.7142857 C27.4285714,22.9785714 26.4071429,24 25.1428571,24 L6.85714286,24 C5.59285714,24 4.57142857,22.9785714 4.57142857,21.7142857 L4.57142857,12.7428571 L14.3285714,19.0428571 C14.8285714,19.3642857 15.4071429,19.5357143 16,19.5357143 C16.5928571,19.5357143 17.1714286,19.3642857 17.6714286,19.0428571 L17.6714286,19.0428571 Z" id="Shape"></path>
        </g>
    </g>
</svg>