<?xml version="1.0" encoding="UTF-8"?>
<svg width="312px" height="61px" viewBox="0 0 312 61" version="1.1" xmlns="http://www.w3.org/2000/svg" xmlns:xlink="http://www.w3.org/1999/xlink">
    <title>expand-logo</title>
    <g id="Page-1" stroke="none" stroke-width="1" fill="none" fill-rule="evenodd">
        <g id="expand-logo" transform="translate(0.900000, 0.100000)" fill-rule="nonzero">
            <path d="M265.706806,39.4764398 L265.706806,5.28795812 L282.408377,5.28795812 C290.157068,5.28795812 293.874346,7.01570681 297.591623,9.79057592 C301.361257,12.9319372 303.455497,17.382199 303.455497,22.3036649 C303.455497,27.382199 301.204188,31.9371728 297.382199,35.1308901 C293.560209,37.8010471 290.26178,39.4240838 282.408377,39.4240838 L265.706806,39.4240838 L265.706806,39.4764398 Z M282.670157,44.7120419 C292.879581,44.7120419 298.062827,42.513089 303.036649,38.8481675 C308.115183,34.8167539 311.04712,28.8481675 311.04712,22.3560209 C311.04712,15.9685864 308.272251,10.3141361 303.455497,6.28272251 C298.534031,2.46073298 292.827225,0.0523560209 282.670157,0.0523560209 L258.429319,0.0523560209 L258.429319,44.7643979 L282.670157,44.7643979 L282.670157,44.7120419 Z M247.643979,0 L247.643979,34.2931937 L247.539267,34.2931937 L212.879581,0 L206.282723,0 L206.282723,44.7120419 L213.560209,44.7120419 L213.560209,10.4188482 L213.664921,10.4188482 L248.324607,44.7120419 L254.921466,44.7120419 L254.921466,0 L247.643979,0 Z M175.340314,7.01570681 L175.863874,7.01570681 L186.649215,26.5445026 L164.60733,26.5445026 L175.340314,7.01570681 Z M154.60733,44.7120419 L161.937173,31.3089005 L189.162304,31.3089005 L196.596859,44.7120419 L204.554974,44.7120419 L179.267016,0 L172.408377,0 L147.120419,44.7120419 L154.60733,44.7120419 Z M141.518325,5.28795812 C145.13089,5.28795812 148.638743,5.7591623 151.204188,8.0104712 C152.879581,9.52879581 153.769634,11.2041885 153.769634,13.1937173 C153.769634,15.2356021 152.670157,17.2251309 150.837696,18.6910995 C148.010471,20.8900524 144.554974,21.2041885 141.465969,21.2041885 L119.267016,21.2041885 L119.267016,5.28795812 L141.518325,5.28795812 Z M119.319372,44.7120419 L119.319372,26.4921466 L141.518325,26.4921466 C148.272251,26.4921466 152.879581,24.973822 156.125654,22.408377 C159.109948,20.104712 160.994764,16.8586387 160.994764,13.1413613 C160.994764,10 159.581152,6.96335079 156.806283,4.5026178 C153.403141,1.57068063 148.638743,3.55271368e-15 141.518325,3.55271368e-15 L112.041885,3.55271368e-15 L112.041885,44.7120419 L119.319372,44.7120419 Z M101.099476,3.55271368e-15 L84.1361257,17.382199 L67.591623,3.55271368e-15 L58.4293194,3.55271368e-15 L79.3717277,21.5706806 L56.1780105,44.7120419 L64.973822,44.7120419 L83.7696335,25.4973822 L102.041885,44.7120419 L111.308901,44.7120419 L88.4293194,21.3089005 L109.895288,3.55271368e-15 L101.099476,3.55271368e-15 Z" id="Shape" fill="#197A56"></path>
            <rect id="Rectangle" fill="#29BA74" x="8.16753927" y="19.7905759" width="23.2460733" height="5.23560209"></rect>
            <rect id="Rectangle" fill="#197A56" x="8.16753927" y="3.72011904e-15" width="41.8324607" height="5.18324607"></rect>
            <rect id="Rectangle" fill="#50A072" x="9.30029759e-15" y="9.89528796" width="18.7958115" height="5.23560209"></rect>
            <rect id="Rectangle" fill="#CAE2C8" x="4.45026178" y="29.6335079" width="18.7958115" height="5.23560209"></rect>
            <rect id="Rectangle" fill="#197A56" x="8.16753927" y="39.5287958" width="46.4921466" height="5.23560209"></rect>
            <path d="M303.246073,52.0418848 L301.413613,54.7120419 L299.528796,52.0418848 L297.434555,52.0418848 L300.471204,56.2303665 L300.471204,59.7382199 L302.146597,59.7382199 L302.146597,56.2303665 L305.183246,52.0418848 L303.246073,52.0418848 Z M294.502618,52.0418848 L294.502618,56.8062827 L294.502618,56.8062827 L290.575916,52.0418848 L289.109948,52.0418848 L289.109948,59.7382199 L290.78534,59.7382199 L290.78534,54.973822 L290.78534,54.973822 L294.712042,59.7382199 L296.17801,59.7382199 L296.17801,52.0418848 L294.502618,52.0418848 Z M283.403141,54.0837696 L283.455497,54.0837696 L284.60733,56.8062827 L282.251309,56.8062827 L283.403141,54.0837696 Z M279.21466,59.7382199 L280.994764,59.7382199 L281.675393,58.1151832 L285.235602,58.1151832 L285.91623,59.7382199 L287.748691,59.7382199 L284.188482,52.0418848 L282.774869,52.0418848 L279.21466,59.7382199 Z M276.387435,53.4554974 C276.701571,53.4554974 277.015707,53.5078534 277.277487,53.7696335 C277.434555,53.9790576 277.539267,54.1884817 277.539267,54.4502618 C277.539267,54.7120419 277.434555,54.973822 277.225131,55.1308901 C276.963351,55.3926702 276.649215,55.4450262 276.335079,55.4450262 L273.717277,55.4450262 L273.717277,53.4554974 L276.387435,53.4554974 Z M273.717277,59.7382199 L273.717277,56.9109948 L276.282723,56.9109948 C277.329843,56.9109948 278.010471,56.6492147 278.481675,56.1780105 C278.95288,55.7591623 279.21466,55.1308901 279.21466,54.5026178 C279.21466,53.9267016 279.005236,53.3507853 278.586387,52.9319372 C278.062827,52.408377 277.329843,52.0942408 276.282723,52.0942408 L272.041885,52.0942408 L272.041885,59.7905759 L273.717277,59.7905759 L273.717277,59.7382199 Z M269.633508,59.7382199 L269.633508,52.0418848 L268.062827,52.0418848 L265.549738,56.2303665 L265.549738,56.2303665 L263.036649,52.0418848 L261.413613,52.0418848 L261.413613,59.7382199 L263.036649,59.7382199 L263.036649,55.2879581 L263.089005,55.2879581 L265.235602,58.8481675 L265.706806,58.8481675 L267.853403,55.2879581 L267.905759,55.2879581 L267.905759,59.7382199 L269.633508,59.7382199 Z M252.722513,55.8638743 C252.722513,54.4502618 253.874346,53.2460733 255.287958,53.2460733 C256.753927,53.2460733 257.905759,54.3979058 257.905759,55.8638743 C257.905759,57.3298429 256.753927,58.5340314 255.287958,58.5340314 C253.82199,58.5340314 252.722513,57.3298429 252.722513,55.8638743 M250.942408,55.8638743 C250.942408,58.1675393 252.827225,59.947644 255.287958,59.947644 C257.696335,59.947644 259.685864,58.1151832 259.685864,55.8638743 C259.685864,53.6125654 257.748691,51.8324607 255.287958,51.8324607 C252.827225,51.8324607 250.942408,53.6125654 250.942408,55.8638743 M249.162304,57.2774869 C248.481675,57.9581152 247.539267,58.4816754 246.492147,58.4816754 C244.921466,58.4816754 243.874346,57.3298429 243.874346,55.8638743 C243.874346,54.4502618 244.86911,53.2460733 246.439791,53.2460733 C247.277487,53.2460733 248.272251,53.6125654 248.95288,54.2408377 L250,53.1413613 C249.057592,52.3560209 247.696335,51.7801047 246.282723,51.7801047 C243.82199,51.7801047 242.094241,53.6125654 242.094241,55.8638743 C242.094241,58.1151832 243.769634,59.947644 246.335079,59.947644 C248.010471,59.947644 249.371728,59.2146597 250.26178,58.3769634 L249.162304,57.2774869 Z M238.167539,53.1937173 C237.068063,52.3036649 235.759162,51.8324607 234.502618,51.8324607 C232.146597,51.8324607 230.26178,53.6649215 230.26178,55.9162304 C230.26178,58.1675393 232.094241,60 234.554974,60 C235.759162,60 237.172775,59.5287958 238.167539,58.7958115 L238.167539,55.3403141 L234.293194,55.3403141 L234.293194,56.7015707 L236.596859,56.7015707 L236.596859,58.0104712 C236.125654,58.3246073 235.340314,58.5340314 234.659686,58.5340314 C232.931937,58.5340314 232.041885,57.2774869 232.041885,55.9162304 C232.041885,54.5026178 233.089005,53.2984293 234.554974,53.2984293 C235.340314,53.2984293 236.387435,53.6649215 237.068063,54.2408377 L238.167539,53.1937173 Z M228.534031,57.2774869 C227.853403,57.9581152 226.910995,58.4816754 225.863874,58.4816754 C224.293194,58.4816754 223.246073,57.3298429 223.246073,55.8638743 C223.246073,54.4502618 224.240838,53.2460733 225.811518,53.2460733 C226.649215,53.2460733 227.643979,53.6125654 228.324607,54.2408377 L229.371728,53.1413613 C228.429319,52.3560209 227.068063,51.7801047 225.65445,51.7801047 C223.193717,51.7801047 221.465969,53.6125654 221.465969,55.8638743 C221.465969,58.1151832 223.141361,59.947644 225.706806,59.947644 C227.382199,59.947644 228.743455,59.2146597 229.633508,58.3769634 L228.534031,57.2774869 Z M217.015707,53.4554974 C217.382199,53.4554974 217.591623,53.5602094 217.801047,53.7172775 C217.958115,53.8743455 218.010471,54.0314136 218.010471,54.2931937 C218.010471,54.5026178 217.905759,54.7643979 217.748691,54.921466 C217.591623,55.078534 217.329843,55.1832461 217.015707,55.1832461 L214.293194,55.1832461 L214.293194,53.5078534 L217.015707,53.5078534 L217.015707,53.4554974 Z M217.329843,56.3874346 C217.696335,56.3874346 217.958115,56.4921466 218.167539,56.7015707 C218.324607,56.8586387 218.429319,57.1204188 218.429319,57.3298429 C218.429319,57.591623 218.324607,57.8010471 218.167539,58.0104712 C217.958115,58.2198953 217.696335,58.3246073 217.329843,58.3246073 L214.34555,58.3246073 L214.34555,56.3874346 L217.329843,56.3874346 Z M217.382199,59.7382199 C218.429319,59.7382199 219.005236,59.4764398 219.47644,59.0575916 C219.947644,58.5863874 220.209424,58.0104712 220.209424,57.434555 C220.209424,56.5445026 219.73822,55.8115183 218.848168,55.5497382 C219.424084,55.2356021 219.790576,54.6596859 219.790576,54.0314136 C219.790576,53.6125654 219.633508,53.1937173 219.319372,52.8795812 C218.900524,52.408377 218.219895,52.1465969 217.277487,52.1465969 L212.617801,52.1465969 L212.617801,59.8429319 L217.382199,59.8429319 L217.382199,59.7382199 Z M204.554974,54.0837696 L204.60733,54.0837696 L205.759162,56.8062827 L203.350785,56.8062827 L204.554974,54.0837696 Z M200.366492,59.7382199 L202.146597,59.7382199 L202.827225,58.1151832 L206.387435,58.1151832 L207.068063,59.7382199 L208.900524,59.7382199 L205.340314,52.0418848 L203.874346,52.0418848 L200.366492,59.7382199 Z" id="Shape" fill="#9C9B9B"></path>
        </g>
    </g>
</svg>