<?xml version="1.0" encoding="utf-8"?>
<!-- Generator: Adobe Illustrator 27.4.0, SVG Export Plug-In . SVG Version: 6.00 Build 0)  -->
<svg version="1.1" id="Layer_1" xmlns="http://www.w3.org/2000/svg" xmlns:xlink="http://www.w3.org/1999/xlink" x="0px" y="0px"
	 viewBox="0 0 636.5 161.6" style="enable-background:new 0 0 636.5 161.6;" xml:space="preserve">
<style type="text/css">
	.st0{fill:#197A56;}
	.st1{fill:#29BA74;}
	.st2{fill:#50A072;}
	.st3{fill:#CAE2C8;}
	.st4{fill:#9C9B9B;}
</style>
<g>
	<path class="st0" d="M531.4,107.5V42.2h31.9c14.8,0,21.9,3.3,29,8.6c7.2,6,11.2,14.5,11.2,23.9c0,9.7-4.3,18.4-11.6,24.5
		c-7.3,5.1-13.6,8.2-28.6,8.2H531.4z M563.8,117.5c19.5,0,29.4-4.2,38.9-11.2c9.7-7.7,15.3-19.1,15.3-31.5c0-12.2-5.3-23-14.5-30.7
		c-9.4-7.3-20.3-11.9-39.7-11.9h-46.3v85.4H563.8z M496.9,32.1v65.5h-0.2l-66.2-65.5h-12.6v85.4h13.9V52h0.2l66.2,65.5h12.6V32.1
		H496.9z M358.8,45.5h1l20.6,37.3h-42.1L358.8,45.5z M319.2,117.5l14-25.6h52l14.2,25.6h15.2l-48.3-85.4h-13.1l-48.3,85.4H319.2z
		 M294.2,42.2c6.9,0,13.6,0.9,18.5,5.2c3.2,2.9,4.9,6.1,4.9,9.9c0,3.9-2.1,7.7-5.6,10.5c-5.4,4.2-12,4.8-17.9,4.8h-42.4V42.2H294.2z
		 M251.8,117.5V82.7h42.4c12.9,0,21.7-2.9,27.9-7.8c5.7-4.4,9.3-10.6,9.3-17.7c0-6-2.7-11.8-8-16.5c-6.5-5.6-15.6-8.6-29.2-8.6
		h-56.3v85.4H251.8z M217,32.1l-32.4,33.2L153,32.1h-17.5l40,41.2l-44.3,44.2h16.8l35.9-36.7l34.9,36.7h17.7l-43.7-44.7l41-40.7H217
		z"/>
</g>
<rect x="39.5" y="69.9" class="st1" width="44.4" height="10"/>
<rect x="39.5" y="32.1" class="st0" width="79.9" height="9.9"/>
<rect x="23.9" y="51" class="st2" width="35.9" height="10"/>
<rect x="32.4" y="88.7" class="st3" width="35.9" height="10"/>
<rect x="39.5" y="107.6" class="st0" width="88.8" height="10"/>
<g>
	<path class="st4" d="M603.1,131.5l-3.5,5.1l-3.6-5.1h-4l5.8,8v6.7h3.2v-6.7l5.8-8H603.1z M586.4,131.5v9.1h0l-7.5-9.1h-2.8v14.7
		h3.2v-9.1h0l7.5,9.1h2.8v-14.7H586.4z M565.2,135.4h0.1l2.2,5.2H563L565.2,135.4z M557.2,146.2h3.4l1.3-3.1h6.8l1.3,3.1h3.5
		l-6.8-14.7H564L557.2,146.2z M551.8,134.2c0.6,0,1.2,0.1,1.7,0.6c0.3,0.4,0.5,0.8,0.5,1.3c0,0.5-0.2,1-0.6,1.3
		c-0.5,0.5-1.1,0.6-1.7,0.6h-5v-3.8H551.8z M546.7,146.2v-5.4h4.9c2,0,3.3-0.5,4.2-1.4c0.9-0.8,1.4-2,1.4-3.2c0-1.1-0.4-2.2-1.2-3
		c-1-1-2.4-1.6-4.4-1.6h-8.1v14.7H546.7z M538.9,146.2v-14.7h-3l-4.8,8h0l-4.8-8h-3.1v14.7h3.1v-8.5h0.1l4.1,6.8h0.9l4.1-6.8h0.1
		v8.5H538.9z M506.6,138.8c0-2.7,2.2-5,4.9-5c2.8,0,5,2.2,5,5c0,2.8-2.2,5.1-5,5.1C508.7,143.9,506.6,141.6,506.6,138.8
		 M503.2,138.8c0,4.4,3.6,7.8,8.3,7.8c4.6,0,8.4-3.5,8.4-7.8c0-4.3-3.7-7.7-8.4-7.7C506.8,131.1,503.2,134.5,503.2,138.8
		 M499.8,141.5c-1.3,1.3-3.1,2.3-5.1,2.3c-3,0-5-2.2-5-5c0-2.7,1.9-5,4.9-5c1.6,0,3.5,0.7,4.8,1.9l2-2.1c-1.8-1.5-4.4-2.6-7.1-2.6
		c-4.7,0-8,3.5-8,7.8c0,4.3,3.2,7.8,8.1,7.8c3.2,0,5.8-1.4,7.5-3L499.8,141.5z M478.8,133.7c-2.1-1.7-4.6-2.6-7-2.6
		c-4.5,0-8.1,3.5-8.1,7.8c0,4.3,3.5,7.8,8.2,7.8c2.3,0,5-0.9,6.9-2.3v-6.6h-7.4v2.6h4.4v2.5c-0.9,0.6-2.4,1-3.7,1c-3.3,0-5-2.4-5-5
		c0-2.7,2-5,4.8-5c1.5,0,3.5,0.7,4.8,1.8L478.8,133.7z M460.4,141.5c-1.3,1.3-3.1,2.3-5.1,2.3c-3,0-5-2.2-5-5c0-2.7,1.9-5,4.9-5
		c1.6,0,3.5,0.7,4.8,1.9l2-2.1c-1.8-1.5-4.4-2.6-7.1-2.6c-4.7,0-8,3.5-8,7.8c0,4.3,3.2,7.8,8.1,7.8c3.2,0,5.8-1.4,7.5-3L460.4,141.5
		z M438.4,134.2c0.7,0,1.1,0.2,1.5,0.5c0.3,0.3,0.4,0.6,0.4,1.1c0,0.4-0.2,0.9-0.5,1.2c-0.3,0.3-0.8,0.5-1.4,0.5h-5.2v-3.2H438.4z
		 M439,139.8c0.7,0,1.2,0.2,1.6,0.6c0.3,0.3,0.5,0.8,0.5,1.2c0,0.5-0.2,0.9-0.5,1.3c-0.4,0.4-0.9,0.6-1.6,0.6h-5.7v-3.7H439z
		 M439.1,146.2c2,0,3.1-0.5,4-1.3c0.9-0.9,1.4-2,1.4-3.1c0-1.7-0.9-3.1-2.6-3.6c1.1-0.6,1.8-1.7,1.8-2.9c0-0.8-0.3-1.6-0.9-2.2
		c-0.8-0.9-2.1-1.4-3.9-1.4H430v14.7H439.1z M414.6,135.4h0.1l2.2,5.2h-4.6L414.6,135.4z M406.6,146.2h3.4l1.3-3.1h6.8l1.3,3.1h3.5
		l-6.8-14.7h-2.8L406.6,146.2z"/>
</g>
</svg>
