<?xml version="1.0" encoding="utf-8"?>
<!-- Generator: Adobe Illustrator 25.3.0, SVG Export Plug-In . SVG Version: 6.00 Build 0)  -->
<svg version="1.1" id="Layer_1" xmlns="http://www.w3.org/2000/svg" xmlns:xlink="http://www.w3.org/1999/xlink" x="0px" y="0px"
	 viewBox="0 0 606.5 139.4" style="enable-background:new 0 0 606.5 139.4;" xml:space="preserve">
<style type="text/css">
	.st0{fill:#FFFFFF;}
</style>
<g>
	<path class="st0" d="M512.8,92.6V27.3h31.9c14.8,0,21.9,3.3,29,8.6c7.2,6,11.2,14.5,11.2,23.9c0,9.7-4.3,18.4-11.6,24.5
		c-7.3,5.1-13.6,8.2-28.6,8.2H512.8z M545.1,102.7c19.5,0,29.4-4.2,38.9-11.2c9.7-7.7,15.3-19.1,15.3-31.5c0-12.2-5.3-23-14.5-30.7
		c-9.4-7.3-20.3-11.9-39.7-11.9h-46.3v85.4H545.1z M478.2,17.3v65.5H478l-66.2-65.5h-12.6v85.4h13.9V37.2h0.2l66.2,65.5H492V17.3
		H478.2z M340.1,30.6h1l20.6,37.3h-42.1L340.1,30.6z M300.5,102.7l14-25.6h52l14.2,25.6h15.2l-48.3-85.4h-13.1l-48.3,85.4H300.5z
		 M275.5,27.3c6.9,0,13.6,0.9,18.5,5.2c3.2,2.9,4.9,6.1,4.9,9.9c0,3.9-2.1,7.7-5.6,10.5c-5.4,4.2-12,4.8-17.9,4.8h-42.4V27.3H275.5z
		 M233.1,102.7V67.9h42.4c12.9,0,21.7-2.9,27.9-7.8c5.7-4.4,9.3-10.6,9.3-17.7c0-6-2.7-11.8-8-16.5c-6.5-5.6-15.6-8.6-29.2-8.6
		h-56.3v85.4H233.1z M198.3,17.3l-32.4,33.2l-31.6-33.2h-17.5l40,41.2l-44.3,44.2h16.8l35.9-36.7l34.9,36.7h17.7L174,57.9l41-40.7
		H198.3z"/>
</g>
<rect x="20.8" y="55" class="st0" width="44.4" height="10"/>
<rect x="20.8" y="17.3" class="st0" width="79.9" height="9.9"/>
<rect x="5.2" y="36.1" class="st0" width="35.9" height="10"/>
<rect x="13.7" y="73.9" class="st0" width="35.9" height="10"/>
<rect x="20.8" y="92.8" class="st0" width="88.8" height="10"/>
<g>
	<path class="st0" d="M584.4,116.6l-3.5,5.1l-3.6-5.1h-4l5.8,8v6.7h3.2v-6.7l5.8-8H584.4z M567.7,116.6v9.1h0l-7.5-9.1h-2.8v14.7
		h3.2v-9.1h0l7.5,9.1h2.8v-14.7H567.7z M546.5,120.5h0.1l2.2,5.2h-4.6L546.5,120.5z M538.5,131.3h3.4l1.3-3.1h6.8l1.3,3.1h3.5
		l-6.8-14.7h-2.8L538.5,131.3z M533.1,119.4c0.6,0,1.2,0.1,1.7,0.6c0.3,0.4,0.5,0.8,0.5,1.3c0,0.5-0.2,1-0.6,1.3
		c-0.5,0.5-1.1,0.6-1.7,0.6h-5v-3.8H533.1z M528,131.3v-5.4h4.9c2,0,3.3-0.5,4.2-1.4c0.9-0.8,1.4-2,1.4-3.2c0-1.1-0.4-2.2-1.2-3
		c-1-1-2.4-1.6-4.4-1.6h-8.1v14.7H528z M520.2,131.3v-14.7h-3l-4.8,8h0l-4.8-8h-3.1v14.7h3.1v-8.5h0.1l4.1,6.8h0.9l4.1-6.8h0.1v8.5
		H520.2z M487.9,123.9c0-2.7,2.2-5,4.9-5c2.8,0,5,2.2,5,5c0,2.8-2.2,5.1-5,5.1C490,129,487.9,126.7,487.9,123.9 M484.5,123.9
		c0,4.4,3.6,7.8,8.3,7.8c4.6,0,8.4-3.5,8.4-7.8c0-4.3-3.7-7.7-8.4-7.7C488.1,116.2,484.5,119.7,484.5,123.9 M481.1,126.7
		c-1.3,1.3-3.1,2.3-5.1,2.3c-3,0-5-2.2-5-5c0-2.7,1.9-5,4.9-5c1.6,0,3.5,0.7,4.8,1.9l2-2.1c-1.8-1.5-4.4-2.6-7.1-2.6
		c-4.7,0-8,3.5-8,7.8c0,4.3,3.2,7.8,8.1,7.8c3.2,0,5.8-1.4,7.5-3L481.1,126.7z M460.1,118.8c-2.1-1.7-4.6-2.6-7-2.6
		c-4.5,0-8.1,3.5-8.1,7.8c0,4.3,3.5,7.8,8.2,7.8c2.3,0,5-0.9,6.9-2.3v-6.6h-7.4v2.6h4.4v2.5c-0.9,0.6-2.4,1-3.7,1c-3.3,0-5-2.4-5-5
		c0-2.7,2-5,4.8-5c1.5,0,3.5,0.7,4.8,1.8L460.1,118.8z M441.7,126.7c-1.3,1.3-3.1,2.3-5.1,2.3c-3,0-5-2.2-5-5c0-2.7,1.9-5,4.9-5
		c1.6,0,3.5,0.7,4.8,1.9l2-2.1c-1.8-1.5-4.4-2.6-7.1-2.6c-4.7,0-8,3.5-8,7.8c0,4.3,3.2,7.8,8.1,7.8c3.2,0,5.8-1.4,7.5-3L441.7,126.7
		z M419.7,119.3c0.7,0,1.1,0.2,1.5,0.5c0.3,0.3,0.4,0.6,0.4,1.1c0,0.4-0.2,0.9-0.5,1.2c-0.3,0.3-0.8,0.5-1.4,0.5h-5.2v-3.2H419.7z
		 M420.3,125c0.7,0,1.2,0.2,1.6,0.6c0.3,0.3,0.5,0.8,0.5,1.2c0,0.5-0.2,0.9-0.5,1.3c-0.4,0.4-0.9,0.6-1.6,0.6h-5.7V125H420.3z
		 M420.4,131.3c2,0,3.1-0.5,4-1.3c0.9-0.9,1.4-2,1.4-3.1c0-1.7-0.9-3.1-2.6-3.6c1.1-0.6,1.8-1.7,1.8-2.9c0-0.8-0.3-1.6-0.9-2.2
		c-0.8-0.9-2.1-1.4-3.9-1.4h-8.8v14.7H420.4z M395.9,120.5h0.1l2.2,5.2h-4.6L395.9,120.5z M387.9,131.3h3.4l1.3-3.1h6.8l1.3,3.1h3.5
		l-6.8-14.7h-2.8L387.9,131.3z"/>
</g>
</svg>
