<?xml version="1.0" encoding="UTF-8"?>
<svg width="400px" height="129px" viewBox="0 0 400 129" version="1.1" xmlns="http://www.w3.org/2000/svg" xmlns:xlink="http://www.w3.org/1999/xlink">
    <title>Expand_WEB_Careers_EXPAND YOUR WORLD_sub-logo</title>
    <g id="Page-1" stroke="none" stroke-width="1" fill="none" fill-rule="evenodd">
        <g id="Expand_WEB_Careers_EXPAND-YOUR-WORLD_sub-logo" transform="translate(0.000000, 0.400000)" fill="#FFFFFF" fill-rule="nonzero">
            <path d="M347.799811,121.095373 L347.799811,94.7308782 L359.206799,94.7308782 C363.966006,94.7308782 366.005666,95.9395656 368.15864,97.9414542 C370.538244,100.396601 371.822474,103.94712 371.822474,107.913126 C371.822474,111.992446 370.349386,115.731822 367.932011,118.149197 C365.665722,120 364.041549,121.133144 359.206799,121.133144 L347.799811,121.133144 L347.799811,121.095373 Z M359.508971,126.912181 C366.383381,126.912181 369.820585,125.174693 373.068933,122.266289 C376.694995,118.753541 378.659112,113.578848 378.659112,107.875354 C378.659112,102.360718 376.846081,97.4504249 373.484419,93.9754485 C370.236072,90.8404155 366.383381,88.9140699 359.508971,88.9140699 L341.265345,88.9140699 L341.265345,126.949953 L359.508971,126.949953 L359.508971,126.912181 Z M308.29084,88.9140699 L308.29084,126.949953 L338.168083,126.949953 L338.168083,121.095373 L314.825307,121.095373 L314.825307,88.8762984 L308.29084,88.8762984 L308.29084,88.9140699 Z M290.613787,94.7308782 C292.653447,94.7308782 294.730878,94.9197356 296.543909,96.7705382 C297.525968,97.8281398 298.130312,99.1123702 298.130312,100.547686 C298.130312,103.796034 295.221907,106.477809 291.784703,106.477809 L276.18508,106.477809 L276.18508,94.7308782 L290.613787,94.7308782 Z M276.18508,126.912181 L276.18508,112.294618 L289.707271,112.294618 L297.865911,126.912181 L305.382436,126.912181 L296.279509,111.425873 C301.303116,109.575071 304.664778,105.646837 304.664778,100.547686 C304.664778,97.6392823 303.569405,94.9575071 301.643059,92.917847 C299.187913,90.3116147 295.712937,88.9140699 290.651558,88.9140699 L269.688385,88.9140699 L269.688385,126.949953 L276.18508,126.949953 L276.18508,126.912181 Z M230.897073,107.837583 C230.897073,99.9811143 237.242682,93.5599622 245.401322,93.5599622 C253.597734,93.5599622 260.094429,99.9811143 260.094429,107.837583 C260.094429,115.769594 253.635505,122.266289 245.401322,122.266289 C237.242682,122.266289 230.897073,115.731822 230.897073,107.837583 M224.022663,107.837583 C224.022663,119.131256 233.389991,128.120869 245.401322,128.120869 C257.412653,128.120869 266.931067,119.169027 266.931067,107.837583 C266.931067,96.7327668 257.374882,87.7431539 245.401322,87.7431539 C233.389991,87.7431539 224.022663,96.6949953 224.022663,107.837583 M170.424929,88.9140699 L182.587347,126.949953 L189.121813,126.949953 L197.431539,101.491974 L197.771483,101.491974 L206.081209,126.949953 L212.653447,126.949953 L224.815864,88.9140699 L218.016997,88.9140699 L209.518414,116.864967 L209.17847,116.864967 L200.151086,88.9140699 L195.505194,88.9140699 L186.477809,116.864967 L186.137866,116.864967 L177.639282,88.9140699 L170.424929,88.9140699 Z" id="Shape"></path>
            <path d="M312.596789,50.6515581 C314.636449,50.6515581 316.713881,50.8404155 318.526912,52.6912181 C319.508971,53.7488196 320.113314,55.03305 320.113314,56.4683664 C320.113314,59.7167139 317.20491,62.3984891 313.767705,62.3984891 L298.168083,62.3984891 L298.168083,50.6515581 L312.596789,50.6515581 Z M298.130312,82.8328612 L298.130312,68.2152975 L311.652502,68.2152975 L319.811143,82.8328612 L327.327668,82.8328612 L318.22474,67.3465534 C323.248347,65.4957507 326.610009,61.5675165 326.610009,56.4683664 C326.610009,53.5599622 325.514636,50.878187 323.588291,48.8385269 C321.133144,46.2322946 317.658168,44.8347498 312.596789,44.8347498 L291.633617,44.8347498 L291.633617,82.8706327 L298.130312,82.8706327 L298.130312,82.8328612 Z M278.526912,44.8347498 L278.526912,69.3484419 C278.526912,75.0519358 273.994334,78.1869688 268.177526,78.1869688 C262.398489,78.1869688 257.865911,75.0519358 257.865911,69.3484419 L257.865911,44.8347498 L251.331445,44.8347498 L251.331445,69.3484419 C251.331445,78.7157696 258.545798,84.0415486 268.177526,84.0415486 C277.847025,84.0415486 285.061379,78.7535411 285.061379,69.3484419 L285.061379,44.8347498 L278.526912,44.8347498 Z M212.124646,63.7582625 C212.124646,55.9017941 218.470255,49.4806421 226.628895,49.4806421 C234.825307,49.4806421 241.322002,55.9017941 241.322002,63.7582625 C241.322002,71.6902738 234.863078,78.1869688 226.628895,78.1869688 C218.470255,78.1869688 212.124646,71.6525024 212.124646,63.7582625 M205.250236,63.7582625 C205.250236,75.0519358 214.617564,84.0415486 226.628895,84.0415486 C238.640227,84.0415486 248.15864,75.0897073 248.15864,63.7582625 C248.15864,52.6534466 238.602455,43.6638338 226.628895,43.6638338 C214.617564,43.6638338 205.250236,52.6156752 205.250236,63.7582625 M199.24457,44.8347498 L188.366383,59.5278565 L177.488196,44.8347498 L169.216242,44.8347498 L184.815864,65.3446648 L184.815864,82.8706327 L191.350331,82.8706327 L191.350331,65.3446648 L206.949953,44.8347498 L199.24457,44.8347498 Z" id="Shape"></path>
            <path d="M369.140699,32.9367328 L369.140699,6.57223796 L380.547686,6.57223796 C385.306893,6.57223796 387.346553,7.7809254 389.499528,9.78281398 C391.879131,12.2379603 393.163362,15.7884797 393.163362,19.7544854 C393.163362,23.8338055 391.690274,27.5731822 389.272899,29.9905571 C387.00661,31.8413598 385.382436,32.9745042 380.547686,32.9745042 L369.140699,32.9745042 L369.140699,32.9367328 Z M380.849858,38.7535411 C387.724268,38.7535411 391.161473,37.0160529 394.409821,34.1076487 C398.035883,30.5949008 400,25.4202077 400,19.7167139 C400,14.2020774 398.186969,9.2917847 394.825307,5.81680831 C391.576959,2.68177526 387.724268,0.755429651 380.849858,0.755429651 L362.606232,0.755429651 L362.606232,38.7535411 L380.849858,38.7535411 Z M349.915014,0.755429651 L349.915014,27.1199245 L349.839471,27.1199245 L327.89424,0.755429651 L322.115203,0.755429651 L322.115203,38.7535411 L328.649669,38.7535411 L328.649669,12.3890463 L328.725212,12.3890463 L350.670444,38.7535411 L356.449481,38.7535411 L356.449481,0.755429651 L349.915014,0.755429651 Z M298.999056,8.53635505 L299.338999,8.53635505 L305.873466,23.2672332 L292.426818,23.2672332 L298.999056,8.53635505 Z M278.753541,38.7535411 L285.552408,38.7535411 L290.084986,28.5174693 L308.215297,28.5174693 L312.823418,38.7535411 L320,38.7535411 L302.322946,0.755429651 L296.392823,0.755429651 L278.753541,38.7535411 Z M271.954674,6.57223796 C273.805477,6.57223796 276.147309,6.76109537 277.884797,8.61189802 C278.866856,9.66949953 279.471199,10.9537299 279.471199,12.4645892 C279.471199,13.9754485 278.829084,15.4485364 277.733711,16.4683664 C275.882908,18.2058546 273.616619,18.319169 271.954674,18.319169 L257.525968,18.319169 L257.525968,6.57223796 L271.954674,6.57223796 Z M257.488196,38.7535411 L257.488196,24.1359773 L271.954674,24.1359773 C277.016053,24.1359773 280.226629,22.7384325 282.492918,20.585458 C284.645892,18.470255 286.005666,15.6373938 286.005666,12.3890463 C286.005666,9.59395656 285.023607,6.98772427 282.983947,4.7592068 C280.642115,2.26628895 277.318225,0.755429651 271.992446,0.755429651 L251.029273,0.755429651 L251.029273,38.7535411 L257.488196,38.7535411 Z M240.037771,0.755429651 L229.084042,14.6175637 L218.583569,0.755429651 L210.273843,0.755429651 L224.815864,19.2256846 L208.687441,38.7535411 L216.619452,38.7535411 L228.744098,23.4938621 L240.377715,38.7535411 L248.687441,38.7535411 L232.974504,18.8857413 L247.932011,0.717658168 L240.037771,0.717658168 L240.037771,0.755429651 Z M195.996223,16.0151086 L181.378659,16.0151086 L181.378659,6.57223796 L205.741265,6.57223796 L205.741265,0.755429651 L174.881964,0.755429651 L174.881964,38.7535411 L207.13881,38.7535411 L207.13881,32.9367328 L181.378659,32.9367328 L181.378659,21.8319169 L195.996223,21.8319169 L195.996223,16.0151086 Z" id="Shape"></path>
            <polygon id="Path" points="23.3427762 56.3550519 89.707271 56.3550519 89.707271 71.2370161 23.3427762 71.2370161"></polygon>
            <polygon id="Path" points="23.3427762 -2.68382525e-15 142.700661 -2.68382525e-15 142.700661 14.8441926 23.3427762 14.8441926"></polygon>
            <polygon id="Path" points="0 28.177526 53.5599622 28.177526 53.5599622 43.0594901 0 43.0594901"></polygon>
            <polygon id="Path" points="12.7667611 84.5325779 66.3267233 84.5325779 66.3267233 99.414542 12.7667611 99.414542"></polygon>
            <polygon id="Path" points="23.3427762 112.710104 155.958451 112.710104 155.958451 127.554297 23.3427762 127.554297"></polygon>
        </g>
    </g>
</svg>