<svg height="107" viewBox="0 0 500 107" width="500" xmlns="http://www.w3.org/2000/svg"><g fill="#fff"><g transform="translate(140.776243)"><path d="m359.129781 80.7724838c-4.228926-3.4301288-9.303637-5.2626633-13.908467-5.2626633-9.068697 0-16.163895 6.9542336-16.163895 15.5530495 0 8.645804 7.001222 15.55305 16.398835 15.55305 4.60483 0 9.914482-1.738559 13.767503-4.604831v-13.156658h-14.895216v5.3096513h8.833756v4.9337469c-1.832535 1.2686778-4.792783 1.9734988-7.471103 1.9734988-6.578329 0-9.961469-4.8397708-9.961469-9.9614699 0-5.4976036 3.900009-10.0084579 9.538577-10.0084579 3.054224 0 7.04821 1.3626539 9.632553 3.6650691zm-39.704915-4.3698901v18.1843812h-.046988l-14.942205-18.1843812h-5.544591v29.3205523h6.484353v-18.1373928h.046988l14.942204 18.1373928h5.59158v-29.3205523zm-26.21934 0h-6.437365v29.3205523h6.437365zm-31.059111 0h-6.484353v29.3205523h6.484353v-9.2096604l4.698806-4.4638662 10.854243 13.6735266h8.175924l-14.425336-17.8554644 12.216897-11.4650879h-8.081948l-13.438586 12.7807537zm-21.426558 5.4506156c1.174702 0 2.490368.1409642 3.524105 1.2686777.657833.657833 1.033737 1.5506062 1.033737 2.5843436 0 2.2554271-1.832534 3.8530214-4.087961 3.8530214h-10.525327v-7.7060427zm-10.055446 23.9169247v-10.8072546h8.692792l5.920496 10.8072546h7.377127l-6.860258-11.840992c3.618081-1.5506061 5.920496-4.5108542 5.920496-8.2698994 0-2.3494033-.892773-4.4638662-2.443379-6.0614604-1.879523-1.9734988-4.651818-3.1951885-8.786768-3.1951885h-16.257871v29.3205523h6.437365zm-24.668734-21.6614976h.281928l4.416879 10.3373743h-9.162673zm-16.069918 21.6614976h6.766281l2.631332-6.2024242h13.579551l2.678319 6.2024242h7.04821l-13.626539-29.3205522h-5.544591zm-1.597594 0v-29.3205522h-5.967485l-9.585565 16.0699182h-.093976l-9.632553-16.0699182h-6.155437v29.3205522h6.249413v-17.0096792h.23494l8.222911 13.7205152h1.785547l8.222911-13.7205152h.234941v17.0096792zm-57.372428 0v-13.0156936h13.861479v13.0156936h6.484353v-29.3205522h-6.484353v10.854243h-13.861479v-10.854243h-6.484353v29.3205522zm-12.780753-9.3036365c-2.584344 2.5843436-6.296401 4.6518185-10.290387 4.6518185-6.06146 0-9.9614695-4.5108543-9.9614695-10.0084579s3.8060335-10.0084579 9.7735175-10.0084579c3.1482 0 6.907246 1.4566301 9.632553 3.7590452l4.040974-4.2289258c-3.524105-3.0072362-8.786768-5.1216991-14.190396-5.1216991-9.4915888 0-15.9289537 7.0951978-15.9289537 15.5530495 0 8.645804 6.4373649 15.600038 16.1638947 15.600038 6.437365 0 11.559064-2.866272 14.942204-6.014473zm-36.6506912-20.0639038v18.1843812h-.046988l-14.9422047-18.1843812h-5.5445917v29.3205523h6.484353v-18.1373928h.0469881l14.8952166 18.1373928h5.5915797v-29.3205523zm-31.6229677 11.2771356h-10.807255v-5.6855558h17.9964289v-5.5915798h-24.4337938v29.3205523h25.4675312v-5.544591h-19.0301663v-7.001222h10.807255zm-33.0795978-5.9204961c1.45663 0 2.3024152.3289164 2.91326.9867493.5168687.5168687.8927732 1.2686778.8927732 2.1144629 0 .8927733-.3759045 1.7385585-.9867493 2.3963914-.6578329.6578329-1.5975942.9397613-2.8192839.9397613h-10.33737433v-6.4373649zm1.0807255 11.2771356c1.4096419 0 2.4433794.4698806 3.2421765 1.2686777.6108448.6578329 1.0337374 1.5506062 1.0337374 2.4903675s-.4228926 1.8795226-1.0337374 2.5843435c-.7518091.7048215-1.8795226 1.1277135-3.2421765 1.1277135h-11.41809983v-7.4711022zm.2349403 12.7337652c3.9939855 0 6.2024246-.939761 7.9879711-2.631331 1.8325345-1.785547 2.7253077-3.9469977 2.7253077-6.296401 0-3.4301287-1.8325345-6.1084484-5.2626633-7.28315 2.161451-1.1277136 3.6650691-3.3831407 3.6650691-5.8735082 0-1.6445823-.6578329-3.1951884-1.8325345-4.4168781-1.5975942-1.6915703-4.2289259-2.8192839-7.8470069-2.8192839h-17.5735363v29.3205522z"/><path d="m155.060615 38.6241895v18.2313692h-.046988l-14.942205-18.1843812h-5.544592v29.3205526h6.484353v-18.1373931h.046988l14.942205 18.1373931h5.59158v-29.3675406zm-31.622968 11.2771356h-10.807255v-5.6855559h17.996429v-5.5915797h-24.433794v29.3205525h25.467531v-5.5445916h-19.030166v-6.9542337h10.807255zm-25.7024717-11.2771356-9.1156847 21.2855934h-.2819283l-9.1156847-21.2855934h-7.28315l13.6265388 29.3205525h5.5915798l13.6265388-29.3205525zm-27.2060897 0h-6.4373649v29.3205525h6.4373649zm-21.4265576 5.4506155c1.1747016 0 2.4903674.1409642 3.5241048 1.2686778.6578329.6578329 1.0337375 1.5506061 1.0337375 2.5843435 0 2.2554272-1.8325346 3.8530214-4.0879617 3.8530214h-10.5253266v-7.7060427zm-10.055446 23.9169251v-10.807255h8.7397801l5.9204962 10.807255h7.3771262l-6.8602575-11.8409924c3.571093-1.5506061 5.9204962-4.5108542 5.9204962-8.2698994 0-2.3494033-.8927732-4.4638662-2.4433793-6.0614604-1.8795226-1.9734988-4.6518185-3.1951884-8.7867682-3.1951884h-16.3048586v29.3205525zm-32.60971709-5.5445917v-18.2313692h7.14218589c3.4771168 0 5.027723.8457852 6.531341 2.3494032 1.5975942 1.6445823 2.4903675 3.9939856 2.4903675 6.7662814 0 2.9602481-.9867494 5.3096514-2.6783197 7.0012217-1.5506062 1.3626539-2.9132601 2.1144629-6.2964007 2.1144629zm7.37712619 5.5445917c5.5445917 0 8.7397801-1.5036181 11.2301476-3.8530213 2.7253077-2.6783197 4.2289258-6.5783291 4.2289258-10.807255 0-4.1349497-1.4096419-7.8000188-3.9469974-10.4783385-2.5843436-2.6313316-6.1084485-4.1819378-11.512076-4.1819378h-13.8144911v29.3205526z"/><path d="m147.448548 6.43736491h10.619303v23.77596089h6.437365v-23.77596089h10.619302v-5.54459167h-27.67597zm-22.507283 23.77596089v-13.015694h13.861479v13.015694h6.484353v-29.32055256h-6.484353v10.85424306h-13.861479v-10.85424306h-6.484353v29.32055256zm-11.277136-24.95066252c-4.228926-3.43012874-9.303637-5.26266328-13.9084669-5.26266328-9.0686966 0-16.1638944 6.95423362-16.1638944 15.5530495 0 8.645804 7.0012217 15.5530496 16.3988347 15.5530496 4.6048306 0 9.9144816-1.7385585 13.7675026-4.6048304v-13.1566582h-14.8952162v5.3096513h8.8337562v4.9337468c-1.832534 1.2686778-4.792783 1.9734988-7.471102 1.9734988-6.5783294 0-9.9614701-4.8397707-9.9614701-9.9614698 0-5.4976036 3.9000094-10.00845786 9.5385772-10.00845786 3.0542239 0 7.0482099 1.36265388 9.6325529 3.66506907zm-33.2675497-4.36989004h-6.4373649v29.32055256h6.4373649zm-11.1831595 3.05422422c-2.5373555-1.69157034-7.7060427-3.94699746-13.8144911-3.94699746-5.5445917 0-12.1229208 2.20843906-12.1229208 9.30363688 0 7.47110232 7.5650785 8.17592332 13.9554553 8.59881592 4.4168781.3759045 7.4241143.9867493 7.4241143 3.8060332 0 2.7253078-2.9602481 4.1819378-6.6723053 4.1819378-5.9204961 0-10.1024339-2.9602481-12.5928014-4.9337468l-3.618081 4.4168781c3.4301288 2.7722959 8.5518278 5.779532 16.1169063 5.779532 7.189174 0 13.2036463-2.8192839 13.2036463-10.0554459 0-8.0819472-8.3638756-8.7397801-13.720515-9.0686966-3.8060333-.3289164-7.7060427-.5168687-7.7060427-3.10121224 0-2.53735552 2.5843436-3.57109295 5.5445917-3.57109295 4.8397707 0 8.5518278 1.83253454 10.2903863 3.14820036zm-36.6037027-3.05422422v18.18438116l-14.9422046-18.18438116h-5.5445917v29.32055256h6.484353v-18.1373931h.046988l14.8952166 18.1373931h5.5915798v-29.32055256zm-26.17235219 0h-6.43736491v29.32055256h6.43736491z"/></g><path d="m19.359083 46.800113h54.929048v12.310873h-54.929048z"/><path d="m19.359083.187952h98.815901v12.310873h-98.815901z"/><path d="m0 23.494033h44.356733v12.310873h-44.356733z"/><path d="m10.572315 70.106193h44.356733v12.310873h-44.356733z"/><path d="m19.359083 93.459261h109.76412v12.310873h-109.76412z"/></g></svg>