<svg height="51" viewBox="0 0 33 51" width="33" xmlns="http://www.w3.org/2000/svg"><path d="m16.0377683 0c-8.86805479 0-16.0377683 7.16982582-16.0377683 16.1006615 0 2.3269364.50320183 4.4656424 1.32098201 6.4780005l13.83650599 26.8554002c.3772918.7545837 1.3836506.7545837 1.7610098 0l13.836506-26.8554002c.8804824-1.9495772 1.320982-4.1510641 1.320982-6.4780005 0-8.93083568-7.1698258-16.1006615-16.0377683-16.1006615zm0 26.2893613c-5.6601642 0-10.31448629-4.5910919-10.31448629-10.3144862 0-5.6601642 4.59109199-10.3144863 10.31448629-10.3144863 5.6601642 0 10.3144862 4.5910919 10.3144862 10.3144863 0 5.722945-4.6542097 10.3144862-10.3144862 10.3144862z" transform="translate(.2 .68)"/></svg>