<?xml version="1.0" encoding="UTF-8"?>
<svg width="33px" height="51px" viewBox="0 0 33 51" version="1.1" xmlns="http://www.w3.org/2000/svg" xmlns:xlink="http://www.w3.org/1999/xlink">
    <title>map-marker-green</title>
    <g id="Page-1" stroke="none" stroke-width="1" fill="none" fill-rule="evenodd">
        <g id="map-marker-green" transform="translate(0.200000, 0.680000)" fill="#29BA73" fill-rule="nonzero">
            <path d="M16.0377683,3.33066907e-16 C7.16971351,3.33066907e-16 7.21644966e-16,7.16982582 7.21644966e-16,16.1006615 C7.21644966e-16,18.4275979 0.50320183,20.5663039 1.32098201,22.578662 L15.157488,49.4340622 C15.5347798,50.1886459 16.5411386,50.1886459 16.9184978,49.4340622 L30.7550038,22.578662 C31.6354862,20.6290848 32.0759858,18.4275979 32.0759858,16.1006615 C32.0759858,7.16982582 24.90616,3.33066907e-16 16.0382175,3.33066907e-16 L16.0377683,3.33066907e-16 Z M16.0377683,26.2893613 C10.3776041,26.2893613 5.72328201,21.6982694 5.72328201,15.9748751 C5.72328201,10.3147109 10.314374,5.6603888 16.0377683,5.6603888 C21.6979325,5.6603888 26.3522545,10.2514807 26.3522545,15.9748751 C26.3522545,21.6978201 21.6980448,26.2893613 16.0377683,26.2893613 L16.0377683,26.2893613 Z" id="Shape"></path>
        </g>
    </g>
</svg>