<svg height="171" viewBox="0 0 501 171" width="501" xmlns="http://www.w3.org/2000/svg"><g fill="#fff"><g transform="translate(218.502284 .7)"><path d="m279.194565 126.624655c-3.987791-2.707759-12.258764-6.301693-21.957464-6.301693-8.812524 0-19.348168 3.49547-19.348168 14.818826 0 11.864908 12.012603 13.046475 22.252855 13.686491 7.040173.590784 11.815676 1.575423 11.815676 6.104766 0 4.381646-4.726271 6.646317-10.68334 6.646317-9.452541 0-16.098858-4.72627-20.037417-7.877117l-5.809373 7.040173c5.464749 4.430879 13.588026 9.255613 25.699094 9.255613 11.471051 0 21.071288-4.529343 21.071288-16.049626 0-12.898779-13.292635-13.883419-21.859-14.474203-6.104766-.492319-12.258763-.787711-12.258763-4.923198 0-3.98779 4.135486-5.710909 8.812524-5.710909 7.729421 0 13.588027 2.953918 16.39425 5.021662zm-86.549823 4.037023h16.985034v37.859393h10.240252v-37.859393h16.886569v-8.861757h-44.111855zm-13.834187-8.861757v28.997637h-.049232l-23.828278-28.997637h-8.812525v46.770382h10.289484v-28.948405h.049232l23.779047 28.948405h8.861756v-46.770382zm-48.985821 17.969673h-17.231193v-9.107916h28.702245v-8.861757h-38.942497v46.770382h40.616384v-8.812524h-30.376132v-11.17566h17.231193zm-40.9117761-17.969673-14.5726664 33.920835h-.4430879l-14.5234344-33.920835h-11.6187475l21.7113036 46.770382h8.8617566l21.7113041-46.770382zm-54.9428909 17.969673h-17.2311934v-9.107916h28.702245v-8.861757h-38.9424971v46.770382h40.6163844v-8.812524h-30.3761323v-11.17566h17.2311934z"/><path d="m112.642773 99.5470658v-29.0468689h11.372587c5.513982 0 8.024813 1.3784955 10.387948 3.7416306 2.560063 2.658527 3.938559 6.3509256 3.938559 10.8310358 0 4.7262702-1.575424 8.4679008-4.283182 11.1756597-2.412368 2.1662072-4.677039 3.3477748-10.043325 3.3477748h-11.372587zm11.766443 8.8125242c8.812525 0 13.883419-2.363135 17.920441-6.153997 4.381647-4.2831826 6.744782-10.4371802 6.744782-17.2311936 0-6.5970855-2.215439-12.4556912-6.301694-16.6896416-4.135486-4.2339504-9.747932-6.6463175-18.314297-6.6463175h-21.957463v46.7703817h21.908231zm-37.0224496-46.7211497v28.9976369h-.0492319l-23.8775109-28.9976369h-8.8125246v46.7703817h10.2894841v-28.9484045h.0492319l23.7790469 28.9484045h8.8617566v-46.7703817zm-61.7861362 12.2095313h.4430878l7.0894053 16.5419457h-14.6218984zm-25.6006302 34.5116184h10.8310358l4.2339504-9.8956278h21.6128397l4.2831824 9.8956278h11.2248917l-21.7113037-46.7703817h-8.8125246z"/><path d="m204.165026 6.30169358c-3.987791-2.70775896-12.258764-6.30169358-21.957464-6.30169358-8.812525 0-19.348169 3.49547066-19.348169 14.8188263 0 11.8649075 12.012604 13.046475 22.252856 13.6864908 7.040173.5907837 11.815675 1.5754233 11.815675 6.1047656 0 4.3816463-4.72627 6.6463175-10.68334 6.6463175-9.45254 0-16.098857-4.7262702-20.037416-7.877117l-5.809374 7.0401733c5.46475 4.4308783 13.588027 9.2556124 25.699095 9.2556124 11.471051 0 21.071287-4.5293422 21.071287-16.0496258 0-12.8987791-13.292634-13.8834187-21.858999-14.4742025-6.104766-.4923198-12.258763-.7877117-12.258763-4.9231981 0-3.9877904 4.135486-5.71090977 8.812524-5.71090977 7.729421 0 13.588027 2.95391887 16.39425 5.02166207zm-108.6057507-4.82473415 14.9665227 46.77038207h9.747932l8.71406-27.7668374h.443088l8.812525 27.7668374h9.747932l14.966522-46.77038207h-10.732571l-9.058685 30.67152427h-.443088l-9.501772-30.72075625h-7.532493l-9.600237 30.72075625h-.443087l-8.960221-30.72075625h-11.1264277zm-13.8341867 17.96967307h-17.2311934v-9.1079165h28.702245v-8.86175657h-38.942497v46.77038207h40.6163844v-8.8617566h-30.3761324v-11.1756597h17.2311934zm-42.5364316-17.96967307v28.99763687h-.049232l-23.8282789-28.99763687h-8.8125246v46.77038207h10.2894841v-28.9484049h.0492319l23.7790469 28.9484049h8.8617566v-46.77038207z"/></g><path d="m31.469988 75.335683h87.534462v19.594329h-87.534462z"/><path d="m31.51922 1.044624h157.394644v19.594329h-157.394644z"/><path d="m.7 38.165538h70.647893v19.594329h-70.647893z"/><path d="m17.537338 112.456597h70.647893v19.594329h-70.647893z"/><path d="m31.469988 149.626743h174.921229v19.594329h-174.921229z"/></g></svg>