<?xml version="1.0" encoding="UTF-8"?>
<svg width="401px" height="137px" viewBox="0 0 401 137" version="1.1" xmlns="http://www.w3.org/2000/svg" xmlns:xlink="http://www.w3.org/1999/xlink">
    <title>news_events</title>
    <g id="Page-1" stroke="none" stroke-width="1" fill="none" fill-rule="evenodd">
        <g id="news_events" transform="translate(0.700000, 0.700000)" fill="#FFFFFF" fill-rule="nonzero">
            <g id="Group" transform="translate(174.241827, 0.000000)">
                <path d="M223.355652,101.299724 C220.165419,99.1335171 213.548641,96.2583694 205.789681,96.2583694 C198.739661,96.2583694 190.311146,99.054746 190.311146,108.11343 C190.311146,117.605356 199.921229,118.55061 208.11343,119.062623 C213.745569,119.53525 217.565971,120.322962 217.565971,123.946436 C217.565971,127.451753 213.784955,129.26349 209.019299,129.26349 C201.457267,129.26349 196.140213,125.482473 192.989366,122.961796 L188.341867,128.593935 C192.713667,132.138637 199.212288,135.998425 208.901142,135.998425 C218.077983,135.998425 225.758173,132.374951 225.758173,123.158724 C225.758173,112.839701 215.124065,112.051989 208.270973,111.579362 C203.38716,111.185506 198.463962,110.949193 198.463962,107.640803 C198.463962,104.450571 201.772351,103.072076 205.513982,103.072076 C211.697519,103.072076 216.384403,105.435211 218.629382,107.089405 L223.355652,101.299724 Z M154.115794,104.529342 L167.70382,104.529342 L167.70382,134.816857 L175.896022,134.816857 L175.896022,104.529342 L189.405278,104.529342 L189.405278,97.439937 L154.115794,97.439937 L154.115794,104.529342 Z M143.048444,97.439937 L143.048444,120.638046 L143.009059,120.638046 L123.946436,97.439937 L116.896416,97.439937 L116.896416,134.856243 L125.128003,134.856243 L125.128003,111.697519 L125.167389,111.697519 L144.190626,134.856243 L151.280032,134.856243 L151.280032,97.439937 L143.048444,97.439937 Z M103.859787,111.815675 L90.0748326,111.815675 L90.0748326,104.529342 L113.036629,104.529342 L113.036629,97.439937 L81.882631,97.439937 L81.882631,134.856243 L114.375738,134.856243 L114.375738,127.806223 L90.0748326,127.806223 L90.0748326,118.865695 L103.859787,118.865695 L103.859787,111.815675 Z M71.1303663,97.439937 L59.4722332,124.576605 L59.1177629,124.576605 L47.4990154,97.439937 L38.2040173,97.439937 L55.5730603,134.856243 L62.6624655,134.856243 L80.0315085,97.439937 L71.1303663,97.439937 Z M27.1760536,111.815675 L13.3910989,111.815675 L13.3910989,104.529342 L36.3528948,104.529342 L36.3528948,97.439937 L5.1988972,97.439937 L5.1988972,134.856243 L37.6920047,134.856243 L37.6920047,127.806223 L13.3910989,127.806223 L13.3910989,118.865695 L27.1760536,118.865695 L27.1760536,111.815675 L27.1760536,111.815675 Z" id="Shape"></path>
                <path d="M90.1142182,79.6376526 L90.1142182,56.4001575 L99.2122883,56.4001575 C103.623474,56.4001575 105.632139,57.5029539 107.522647,59.393462 C109.570697,61.5202836 110.673494,64.4742024 110.673494,68.0582907 C110.673494,71.8393068 109.413155,74.8326113 107.246948,76.9988184 C105.317054,78.7317842 103.505317,79.6770382 99.2122883,79.6770382 L90.1142182,79.6770382 L90.1142182,79.6376526 Z M99.527373,86.6876723 C106.577393,86.6876723 110.634108,84.7971642 113.863726,81.7644742 C117.369043,78.3379283 119.259551,73.4147302 119.259551,67.9795195 C119.259551,62.7018511 117.4872,58.0149665 114.218196,54.6278062 C110.909807,51.2406459 106.41985,49.3107523 99.5667586,49.3107523 L82.0007877,49.3107523 L82.0007877,86.7270579 L99.527373,86.7270579 L99.527373,86.6876723 Z M69.9094132,49.3107523 L69.9094132,72.5088618 L69.8700276,72.5088618 L50.7680189,49.3107523 L43.7179992,49.3107523 L43.7179992,86.7270579 L51.9495865,86.7270579 L51.9495865,63.568334 L51.988972,63.568334 L71.0122095,86.7270579 L78.1016148,86.7270579 L78.1016148,49.3107523 L69.9094132,49.3107523 L69.9094132,49.3107523 Z M20.4805041,59.0783773 L20.8349744,59.0783773 L26.5064986,72.3119338 L14.8089799,72.3119338 L20.4805041,59.0783773 Z M-2.2388113e-14,86.6876723 L8.66482867,86.6876723 L12.051989,78.7711698 L29.3422607,78.7711698 L32.7688066,86.6876723 L41.74872,86.6876723 L24.379677,49.2713667 L17.3296573,49.2713667 L-2.2388113e-14,86.6876723 Z" id="Shape"></path>
                <path d="M163.33202,5.04135486 C160.141788,2.8751477 153.52501,4.19777118e-15 145.76605,4.19777118e-15 C138.71603,4.19777118e-15 130.287515,2.79637653 130.287515,11.855061 C130.287515,21.346987 139.897597,22.292241 148.089799,22.8042536 C153.721938,23.2768807 157.54234,24.0645924 157.54234,27.6880662 C157.54234,31.1933832 153.761323,33.0051201 148.995668,33.0051201 C141.433635,33.0051201 136.116581,29.224104 132.965735,26.7034265 L128.318236,32.3355652 C132.690035,35.8802678 139.188657,39.7400551 148.877511,39.7400551 C158.054352,39.7400551 165.734541,36.1165813 165.734541,26.9003545 C165.734541,16.5813312 155.100433,15.7936195 148.247341,15.3209925 C143.363529,14.9271367 138.440331,14.6908232 138.440331,11.382434 C138.440331,8.19220165 141.74872,6.81370618 145.490351,6.81370618 C151.673887,6.81370618 156.360772,9.17684128 158.60575,10.8310358 L163.33202,5.04135486 Z M76.4474202,1.18156755 L88.420638,38.5978732 L96.2189839,38.5978732 L103.190232,16.3844033 L103.544703,16.3844033 L110.594722,38.5978732 L118.393068,38.5978732 L130.366286,1.18156755 L121.780228,1.18156755 L114.533281,25.7187869 L114.178811,25.7187869 L106.577393,1.14218196 L100.551398,1.14218196 L92.8712091,25.7187869 L92.5167389,25.7187869 L85.3485624,1.14218196 L76.4474202,1.14218196 L76.4474202,1.18156755 Z M65.3800709,15.557306 L51.5951162,15.557306 L51.5951162,8.27097282 L74.5569122,8.27097282 L74.5569122,1.18156755 L43.4029145,1.18156755 L43.4029145,38.5978732 L75.8960221,38.5978732 L75.8960221,31.5084679 L51.5951162,31.5084679 L51.5951162,22.5679401 L65.3800709,22.5679401 L65.3800709,15.557306 L65.3800709,15.557306 Z M31.3509256,1.18156755 L31.3509256,24.379677 L31.31154,24.379677 L12.2489169,1.18156755 L5.1988972,1.18156755 L5.1988972,38.5978732 L13.4304844,38.5978732 L13.4304844,15.4391493 L13.46987,15.4391493 L32.4931075,38.5978732 L39.5825128,38.5978732 L39.5825128,1.18156755 L31.3509256,1.18156755 Z" id="Shape"></path>
            </g>
            <rect id="Rectangle" x="24.6159905" y="59.7085467" width="70.0275699" height="15.6754628"></rect>
            <rect id="Rectangle" x="24.6553761" y="0.275699094" width="125.915715" height="15.6754628"></rect>
            <rect id="Rectangle" x="-1.67910847e-14" y="29.9724301" width="56.5183143" height="15.6754628"></rect>
            <rect id="Rectangle" x="13.46987" y="89.4052777" width="56.5183143" height="15.6754628"></rect>
            <rect id="Rectangle" x="24.6159905" y="119.141394" width="139.936983" height="15.6754628"></rect>
        </g>
    </g>
</svg>