<?xml version="1.0" encoding="UTF-8"?>
<svg width="32px" height="32px" viewBox="0 0 32 32" version="1.1" xmlns="http://www.w3.org/2000/svg" xmlns:xlink="http://www.w3.org/1999/xlink">
    <title>square-phone-solid</title>
    <g id="Page-1" stroke="none" stroke-width="1" fill="none" fill-rule="evenodd">
        <g id="square-phone-solid" fill="#197A56" fill-rule="nonzero">
            <path d="M4.57142857,0 C2.05,0 0,2.05 0,4.57142857 L0,27.4285714 C0,29.95 2.05,32 4.57142857,32 L27.4285714,32 C29.95,32 32,29.95 32,27.4285714 L32,4.57142857 C32,2.05 29.95,0 27.4285714,0 L4.57142857,0 Z M11.05,6.90714286 C11.7428571,6.72142857 12.4714286,7.07142857 12.7428571,7.73571429 L14.1714286,11.1642857 C14.4142857,11.75 14.2428571,12.4214286 13.7571429,12.8214286 L12,14.2642857 C13.1857143,16.7785714 15.2214286,18.8142857 17.7357143,20 L19.1785714,18.2357143 C19.5785714,17.75 20.25,17.5785714 20.8357143,17.8214286 L24.2642857,19.25 C24.9285714,19.5285714 25.2785714,20.25 25.0928571,20.9428571 L24.2357143,24.0857143 C24.0642857,24.7142857 23.5,25.1428571 22.8571429,25.1428571 C14.0214286,25.1428571 6.85714286,17.9785714 6.85714286,9.14285714 C6.85714286,8.5 7.28571429,7.93571429 7.90714286,7.76428571 L11.05,6.90714286 Z" id="Shape"></path>
        </g>
    </g>
</svg>