<?xml version="1.0" encoding="UTF-8"?>
<svg width="401px" height="113px" viewBox="0 0 401 113" version="1.1" xmlns="http://www.w3.org/2000/svg" xmlns:xlink="http://www.w3.org/1999/xlink">
    <title>Expand_WEB_Products_WORLD CLASS PRODUCTS_sub-logo_colour</title>
    <g id="Page-1" stroke="none" stroke-width="1" fill="none" fill-rule="evenodd">
        <g id="Expand_WEB_Products_WORLD-CLASS-PRODUCTS_sub-logo_colour" transform="translate(0.500000, 0.900000)" fill-rule="nonzero">
            <g id="Group" transform="translate(143.856287, 0.000000)" fill="#AFB1B4">
                <path d="M254.179641,83.2095808 C251.54491,81.4371257 246.131737,79.0898204 239.760479,79.0898204 C233.964072,79.0898204 227.065868,81.3892216 227.065868,88.8143713 C227.065868,96.6227545 234.97006,97.3892216 241.676647,97.7724551 C246.275449,98.1556886 249.437126,98.8263473 249.437126,101.748503 C249.437126,104.622754 246.323353,106.107784 242.443114,106.107784 C236.215569,106.107784 231.856287,102.994012 229.269461,100.934132 L225.437126,105.532934 C229.02994,108.45509 234.39521,111.616766 242.299401,111.616766 C249.820359,111.616766 256.143713,108.646707 256.143713,101.077844 C256.143713,92.5988024 247.377246,91.9760479 241.820359,91.5928144 C237.844311,91.257485 233.772455,91.0658683 233.772455,88.3353293 C233.772455,85.7005988 236.502994,84.5508982 239.568862,84.5508982 C244.646707,84.5508982 248.526946,86.4670659 250.347305,87.8562874 L254.179641,83.2095808 Z M196.359281,85.8443114 L207.520958,85.8443114 L207.520958,110.706587 L214.227545,110.706587 L214.227545,85.8443114 L225.341317,85.8443114 L225.341317,80 L196.359281,80 L196.359281,85.8443114 Z M191.520958,100.982036 C188.838323,103.664671 184.958084,105.868263 180.742515,105.868263 C174.371257,105.868263 170.299401,101.173653 170.299401,95.3772455 C170.299401,89.6287425 174.275449,84.8862275 180.502994,84.8862275 C183.808383,84.8862275 187.736527,86.3712575 190.562874,88.8143713 L194.778443,84.4071856 C191.08982,81.245509 185.580838,79.0419162 179.928144,79.0419162 C170.011976,79.0419162 163.257485,86.4670659 163.257485,95.3293413 C163.257485,104.335329 169.964072,111.664671 180.167665,111.664671 C186.874251,111.664671 192.239521,108.646707 195.784431,105.341317 L191.520958,100.982036 Z M154.682635,80 L154.682635,99.6407186 C154.682635,103.664671 151.568862,105.868263 147.401198,105.868263 C143.473054,105.868263 140.215569,103.712575 140.215569,99.6407186 L140.215569,80 L133.461078,80 L133.461078,99.6407186 C133.461078,107.305389 139.54491,111.616766 147.449102,111.616766 C155.592814,111.616766 161.532934,107.305389 161.532934,99.6407186 L161.532934,80 L154.682635,80 Z M107.497006,104.91018 L107.497006,85.7964072 L114.97006,85.7964072 C118.610778,85.7964072 120.239521,86.7065868 121.772455,88.239521 C123.449102,89.9640719 124.359281,92.4071856 124.359281,95.3293413 C124.359281,98.4431138 123.305389,100.886228 121.532934,102.658683 C119.952096,104.047904 118.467066,104.862275 114.97006,104.862275 L107.497006,104.862275 L107.497006,104.91018 Z M115.209581,110.706587 C121.005988,110.706587 124.311377,109.173653 126.946108,106.682635 C129.820359,103.856287 131.353293,99.8323353 131.353293,95.3293413 C131.353293,91.0179641 129.916168,87.1377246 127.233533,84.3592814 C124.502994,81.5808383 120.814371,80 115.209581,80 L100.790419,80 L100.790419,110.706587 L115.209581,110.706587 Z M71.0898204,95.2814371 C71.0898204,89.5808383 75.5928144,84.8862275 81.3892216,84.8862275 C87.2814371,84.8862275 91.8802395,89.5808383 91.8802395,95.2814371 C91.8802395,101.077844 87.2814371,105.868263 81.3892216,105.868263 C75.5928144,105.868263 71.0898204,101.077844 71.0898204,95.2814371 M64.0479042,95.2814371 C64.0479042,104.383234 71.6646707,111.664671 81.3892216,111.664671 C91.1137725,111.664671 98.9221557,104.431138 98.9221557,95.2814371 C98.9221557,86.3233533 91.1137725,79.0419162 81.3892216,79.0419162 C71.6646707,79.0419162 64.0479042,86.3712575 64.0479042,95.2814371 M51.0179641,85.7005988 C52.2634731,85.7005988 53.6047904,85.8443114 54.7065868,86.994012 C55.4251497,87.7125749 55.8083832,88.6227545 55.8083832,89.6766467 C55.8083832,92.0239521 53.8922156,93.7005988 51.5449102,93.7005988 L40.5269461,93.7005988 L40.5269461,85.6526946 L51.0179641,85.6526946 L51.0179641,85.7005988 Z M40.4790419,110.706587 L40.4790419,99.4011976 L49.5808383,99.4011976 L55.8083832,110.706587 L63.5209581,110.706587 L56.3353293,98.3473054 C60.1197605,96.7185629 62.5628743,93.6526946 62.5628743,89.6766467 C62.5628743,87.2335329 61.6047904,85.0299401 60.0239521,83.3053892 C58.0598802,81.245509 55.1856287,79.9520958 50.8263473,79.9520958 L33.8203593,79.9520958 L33.8203593,110.706587 L40.4790419,110.706587 Z M20.742515,85.7005988 C21.988024,85.7005988 23.3293413,85.8922156 24.3832335,86.994012 C25.1017964,87.760479 25.5329341,88.6706587 25.5329341,89.7724551 C25.5329341,90.8263473 25.0538922,91.8323353 24.2874251,92.5988024 C23.2335329,93.6047904 21.9401198,93.7964072 20.742515,93.7964072 L10.2035928,93.7964072 L10.2035928,85.748503 L20.742515,85.748503 L20.742515,85.7005988 Z M10.2035928,110.706587 L10.2035928,99.4011976 L20.502994,99.4011976 C24.6706587,99.4011976 27.4011976,98.251497 29.3652695,96.4311377 C31.1377246,94.7065868 32.2874251,92.3592814 32.2874251,89.6766467 C32.2874251,87.3293413 31.3772455,85.1736527 29.7964072,83.3532934 C27.7844311,81.1976048 24.8622754,79.9520958 20.5508982,79.9520958 L3.54491018,79.9520958 L3.54491018,110.706587 L10.2035928,110.706587 Z" id="Shape"></path>
                <path d="M154.97006,43.6886228 C152.335329,41.9161677 146.922156,39.5688623 140.550898,39.5688623 C134.754491,39.5688623 127.856287,41.8682635 127.856287,49.2934132 C127.856287,57.1017964 135.760479,57.8682635 142.467066,58.251497 C147.065868,58.6347305 150.227545,59.3053892 150.227545,62.2275449 C150.227545,65.1017964 147.113772,66.5868263 143.233533,66.5868263 C137.005988,66.5868263 132.646707,63.4730539 130.05988,61.4131737 L126.227545,66.011976 C129.820359,68.9341317 135.185629,72.0958084 143.08982,72.0958084 C150.610778,72.0958084 156.934132,69.1257485 156.934132,61.5568862 C156.934132,53.0778443 148.167665,52.4550898 142.610778,52.0718563 C138.634731,51.7365269 134.562874,51.5449102 134.562874,48.8143713 C134.562874,46.1796407 137.293413,45.0299401 140.359281,45.0299401 C145.437126,45.0299401 149.317365,46.9461078 151.137725,48.3353293 L154.97006,43.6886228 Z M123.497006,43.6886228 C120.862275,41.9161677 115.449102,39.5688623 109.077844,39.5688623 C103.281437,39.5688623 96.3832335,41.8682635 96.3832335,49.2934132 C96.3832335,57.1017964 104.287425,57.8682635 110.994012,58.251497 C115.592814,58.6347305 118.754491,59.3053892 118.754491,62.2275449 C118.754491,65.1017964 115.640719,66.5868263 111.760479,66.5868263 C105.532934,66.5868263 101.173653,63.4730539 98.5868263,61.4131737 L94.754491,66.011976 C98.3473054,68.9341317 103.712575,72.0958084 111.616766,72.0958084 C119.137725,72.0958084 125.461078,69.1257485 125.461078,61.5568862 C125.461078,53.0778443 116.694611,52.4550898 111.137725,52.0718563 C107.161677,51.7365269 103.08982,51.5449102 103.08982,48.8143713 C103.08982,46.1796407 105.820359,45.0299401 108.886228,45.0299401 C113.964072,45.0299401 117.844311,46.9461078 119.664671,48.3353293 L123.497006,43.6886228 Z M77.8922156,48.5269461 L78.1796407,48.5269461 L82.8263473,59.4011976 L73.245509,59.4011976 L77.8922156,48.5269461 Z M61.0299401,71.1856287 L68.1197605,71.1856287 L70.8982036,64.7185629 L85.0778443,64.7185629 L87.9041916,71.1856287 L95.2814371,71.1856287 L81.0538922,40.4790419 L75.3053892,40.4790419 L61.0299401,71.1856287 Z M34.7784431,40.4790419 L34.7784431,71.1856287 L59.5449102,71.1856287 L59.5449102,65.3892216 L41.4850299,65.3892216 L41.4850299,40.4790419 L34.7784431,40.4790419 Z M29.1736527,61.4610778 C26.491018,64.1437126 22.6107784,66.3473054 18.3952096,66.3473054 C12.0239521,66.3473054 7.95209581,61.6526946 7.95209581,55.8562874 C7.95209581,50.1077844 11.9281437,45.3652695 18.1556886,45.3652695 C21.4610778,45.3652695 25.3892216,46.8502994 28.2155689,49.2934132 L32.4311377,44.8862275 C28.742515,41.7245509 23.2335329,39.5209581 17.5808383,39.5209581 C7.66467066,39.5209581 0.910179641,46.9461078 0.910179641,55.8083832 C0.910179641,64.8143713 7.61676647,72.1437126 17.8203593,72.1437126 C24.5269461,72.1437126 29.8922156,69.1257485 33.4371257,65.8203593 L29.1736527,61.4610778 Z" id="Shape"></path>
                <path d="M146.347305,25.9161677 L146.347305,6.80239521 L153.820359,6.80239521 C157.461078,6.80239521 159.08982,7.71257485 160.622754,9.24550898 C162.299401,10.9700599 163.209581,13.4131737 163.209581,16.3353293 C163.209581,19.4491018 162.155689,21.8922156 160.383234,23.6646707 C158.802395,25.0538922 157.317365,25.8682635 153.820359,25.8682635 L146.347305,25.8682635 L146.347305,25.9161677 Z M154.05988,31.6646707 C159.856287,31.6646707 163.161677,30.1317365 165.796407,27.6407186 C168.670659,24.8143713 170.203593,20.7904192 170.203593,16.2874251 C170.203593,11.9760479 168.766467,8.09580838 166.083832,5.31736527 C163.353293,2.53892216 159.664671,0.958083832 154.05988,0.958083832 L139.640719,0.958083832 L139.640719,31.6646707 L154.05988,31.6646707 Z M112.862275,0.958083832 L112.862275,31.6646707 L137.628743,31.6646707 L137.628743,25.9161677 L119.568862,25.9161677 L119.568862,1.00598802 L112.862275,1.00598802 L112.862275,0.958083832 Z M97.1976048,6.65868263 C98.4431138,6.65868263 99.7844311,6.80239521 100.886228,7.95209581 C101.60479,8.67065868 101.988024,9.58083832 101.988024,10.6347305 C101.988024,12.9820359 100.071856,14.6586826 97.7245509,14.6586826 L86.7065868,14.6586826 L86.7065868,6.65868263 L97.1976048,6.65868263 Z M86.6586826,31.6646707 L86.6586826,20.4071856 L95.760479,20.4071856 L101.988024,31.7125749 L109.700599,31.7125749 L102.51497,19.3532934 C106.299401,17.7245509 108.742515,14.6586826 108.742515,10.6826347 C108.742515,8.23952096 107.784431,6.03592814 106.203593,4.31137725 C104.239521,2.25149701 101.365269,0.958083832 97.005988,0.958083832 L80,0.958083832 L80,31.6646707 L86.6586826,31.6646707 Z M49.8203593,16.239521 C49.8203593,10.5389222 54.3233533,5.84431138 60.1197605,5.84431138 C66.011976,5.84431138 70.6107784,10.5389222 70.6107784,16.239521 C70.6107784,22.0359281 66.011976,26.8263473 60.1197605,26.8263473 C54.3233533,26.8263473 49.8203593,22.0359281 49.8203593,16.239521 M42.7305389,16.239521 C42.7305389,25.3413174 50.3473054,32.6227545 60.0718563,32.6227545 C69.7964072,32.6227545 77.6047904,25.3892216 77.6047904,16.239521 C77.6047904,7.28143713 69.7964072,3.40379754e-15 60.0718563,3.40379754e-15 C50.3473054,0.0479041916 42.7305389,7.32934132 42.7305389,16.239521 M-5.44607606e-14,0.958083832 L9.82035928,31.6646707 L16.239521,31.6646707 L21.988024,13.4131737 L22.2754491,13.4131737 L28.0239521,31.6646707 L34.3952096,31.6646707 L44.2155689,0.958083832 L37.1736527,0.958083832 L31.2814371,21.1257485 L30.994012,21.1257485 L24.7185629,0.958083832 L19.7844311,0.958083832 L13.508982,21.1257485 L13.2215569,21.1257485 L7.32934132,0.958083832 L-5.44607606e-14,0.958083832 Z" id="Shape"></path>
            </g>
            <rect id="Rectangle" fill="#3EAD92" x="20.2634731" y="49.005988" width="57.4850299" height="12.8862275"></rect>
            <rect id="Rectangle" fill="#2E3558" x="20.2634731" y="0.239520958" width="103.377246" height="12.8862275"></rect>
            <rect id="Rectangle" fill="#295E7E" x="0" y="24.6227545" width="46.4191617" height="12.8862275"></rect>
            <rect id="Rectangle" fill="#03522D" x="11.0658683" y="73.4371257" width="46.4191617" height="12.8862275"></rect>
            <rect id="Rectangle" fill="#197A56" x="20.2634731" y="97.8203593" width="114.874251" height="12.8862275"></rect>
        </g>
    </g>
</svg>