<?xml version="1.0" encoding="UTF-8"?>
<svg width="29px" height="31px" viewBox="0 0 29 31" version="1.1" xmlns="http://www.w3.org/2000/svg" xmlns:xlink="http://www.w3.org/1999/xlink">
    <title>search</title>
    <g id="Page-1" stroke="none" stroke-width="1" fill="none" fill-rule="evenodd">
        <g id="search" transform="translate(0.100000, 0.800000)" fill="#086F54" fill-rule="nonzero">
            <path d="M11.8779417,-7.21644966e-16 C5.3516001,-7.21644966e-16 7.10542736e-15,5.3516001 7.10542736e-15,11.8779417 C7.10542736e-15,18.4042833 5.3516001,23.7558833 11.8779417,23.7558833 C14.0968978,23.7558833 16.1853271,23.1467581 17.9691938,22.0590345 L25.9748395,29.5860818 C26.5839647,30.1516981 27.5846704,30.1516981 28.1502867,29.4990639 L28.4548493,29.1509924 C29.0204656,28.5418672 29.0204656,27.5411615 28.3678314,26.9755452 L20.7102573,19.7965695 C22.5811419,17.7081402 23.7558833,14.9235677 23.7558833,11.8779417 C23.7558833,5.3516001 18.4042833,-7.21644966e-16 11.8779417,-7.21644966e-16 Z M11.8779417,3.43720657 C16.5333987,3.43720657 20.3186768,7.17897574 20.3186768,11.8779417 C20.3186768,16.5769076 16.5769076,20.3186768 11.8779417,20.3186768 C7.17897574,20.3186768 3.43720657,16.5769076 3.43720657,11.8779417 C3.43720657,7.22248468 7.22248468,3.43720657 11.8779417,3.43720657 Z" id="Shape"></path>
        </g>
    </g>
</svg>