<svg clip-rule="evenodd" fill-rule="evenodd" stroke-linejoin="round" stroke-miterlimit="2" viewBox="0 0 512 512" xmlns="http://www.w3.org/2000/svg"><path d="m256 0c141.29 0 256 114.71 256 256s-114.71 256-256 256-256-114.71-256-256 114.71-256 256-256zm-45.091 392.158c113.283 0 175.224-93.87 175.224-175.223 0-2.682 0-5.364-.128-7.919 12.005-8.684 22.478-19.54 30.779-31.928-10.983 4.853-22.861 8.174-35.377 9.706 12.772-7.663 22.478-19.668 27.076-34.099-11.878 7.024-25.032 12.132-39.081 14.942-11.239-12.005-27.203-19.412-44.955-19.412-33.972 0-61.558 27.586-61.558 61.558 0 4.853.511 9.578 1.66 14.048-51.213-2.554-96.552-27.075-126.947-64.368-5.237 9.068-8.302 19.668-8.302 30.907 0 21.328 10.856 40.23 27.459 51.213-10.09-.255-19.541-3.065-27.842-7.662v.766c0 29.885 21.2 54.661 49.425 60.409-5.108 1.404-10.6 2.171-16.219 2.171-3.96 0-7.791-.383-11.622-1.15 7.79 24.521 30.523 42.274 57.471 42.784-21.073 16.476-47.637 26.31-76.501 26.31-4.981 0-9.834-.256-14.687-.894 26.948 17.624 59.387 27.841 94.125 27.841z"/></svg>