<?xml version="1.0" encoding="UTF-8"?>
<svg width="512px" height="512px" viewBox="0 0 512 512" version="1.1" xmlns="http://www.w3.org/2000/svg" xmlns:xlink="http://www.w3.org/1999/xlink">
    <title>youtube</title>
    <g id="Page-1" stroke="none" stroke-width="1" fill="none" fill-rule="evenodd">
        <g id="youtube" fill="#000000">
            <path d="M256,0 C397.29,0 512,114.71 512,256 C512,397.29 397.29,512 256,512 C114.71,512 0,397.29 0,256 C0,114.71 114.71,0 256,0 Z M336.886024,159 L176.113976,159 L175.169491,159.007667 C144.061911,159.513073 119,184.939813 119,216.232263 L119,216.232263 L119,296.767737 L119.007652,297.714178 C119.512013,328.886184 144.886201,354 176.113976,354 L176.113976,354 L336.886024,354 L337.830509,353.992333 C368.938089,353.486927 394,328.060187 394,296.767737 L394,296.767737 L394,216.232263 L393.992348,215.285822 C393.487987,184.113816 368.113799,159 336.886024,159 L336.886024,159 Z M219.004625,219.850532 C219.121219,217.698089 221.419809,216.338567 223.370554,217.329935 L223.370554,217.329935 L298.35041,255.428503 L298.521695,255.522146 C300.576131,256.728309 300.481685,259.795085 298.285577,260.844999 L298.285577,260.844999 L223.305721,296.702299 L223.147395,296.772738 C221.187939,297.580332 219,296.138749 219,293.977948 L219,293.977948 L219,220.022081 Z" id="Shape"></path>
        </g>
    </g>
</svg>